<svg width="96" height="96" xmlns="http://www.w3.org/2000/svg" xmlns:xlink="http://www.w3.org/1999/xlink" xml:space="preserve" overflow="hidden"><g><g><path d="M45 27 45 49.243 59.879 64.121 64.121 59.879 51 46.757 51 27 45 27Z" fill="#FFFFFF" fill-rule="nonzero" fill-opacity="1"/><path d="M48 10C59.5626 9.98835 70.4986 15.2538 77.7 24.3L79.313 22.687 86 16 86 37 65 37 70.8 31.2 73.388 28.612C62.6432 14.6304 42.5986 12.0064 28.617 22.7512 14.6354 33.4959 12.0114 53.5406 22.7561 67.5222 33.5009 81.5038 53.5456 84.1278 67.5272 73.383 75.4098 67.3253 80.0209 57.9414 80 48L86 48C86 68.9868 68.9868 86 48 86 27.0132 86 10 68.9868 10 48 10 27.0132 27.0132 10 48 10Z" fill="#FFFFFF" fill-rule="nonzero" fill-opacity="1"/></g></g></svg>