<svg width="122" height="121" xmlns="http://www.w3.org/2000/svg" xmlns:xlink="http://www.w3.org/1999/xlink" xml:space="preserve" overflow="hidden"><g transform="translate(-42 -5236)"><g><g><g><g><path d="M139 5316.5C133.5 5312 126.5 5309 119.5 5307 114.5 5305.5 109 5304.5 103 5304.5 97.5 5304.5 92 5305.5 86.5 5307 79.5 5309 72.5 5312.5 67 5316.5 64.5 5318.5 63 5321.5 63 5324.5L63 5344.5 143 5344.5 143 5324.5C143 5321.5 141.5 5318.5 139 5316.5Z" fill="#000000" fill-rule="nonzero" fill-opacity="1"/><path d="M83.5 5262.5C84.25 5262.5 84.875 5262.25 85.25 5261.75L85.25 5261.75C89.875 5257.25 96.125 5254.5 103 5254.5 116.75 5254.5 128 5265.75 128 5279.5L128 5285.25 113.625 5290C113 5289.75 112.375 5289.5 111.75 5289.5 109.625 5289.5 108 5291.12 108 5293.25 108 5295.38 109.625 5297 111.75 5297 113.25 5297 114.625 5296.12 115.25 5294.75L135.125 5288.12C136.125 5287.75 136.875 5286.88 136.875 5285.75L136.875 5274.5C136.875 5273.12 135.75 5272 134.375 5272L132.125 5272C128.75 5259.12 117 5249.5 103 5249.5 94.875 5249.5 87.5 5252.75 82 5258 81.375 5258.5 81 5259.12 81 5260 81 5261.38 82.125 5262.5 83.5 5262.5Z" fill="#000000" fill-rule="nonzero" fill-opacity="1"/><path d="M122.875 5281.62C123 5280.88 123 5280.25 123 5279.5 123 5268.5 114 5259.5 103 5259.5 92 5259.5 83 5268.5 83 5279.5 83 5290.5 92 5299.5 103 5299.5 103.375 5299.5 103.875 5299.5 104.25 5299.38L104.25 5293.25C104.25 5292.12 104.5 5291 105 5289.88 105.875 5288.12 107.375 5286.75 109.375 5286.12L122.875 5281.62Z" fill="#000000" fill-rule="nonzero" fill-opacity="1"/></g></g></g></g></g></svg>