<svg width="96" height="96" xmlns="http://www.w3.org/2000/svg" xmlns:xlink="http://www.w3.org/1999/xlink" xml:space="preserve" overflow="hidden"><g><g><path d="M37 60.2C38.7 57.4 37.8 53.7 35 52 32.3 50.4 28.8 51.1 27 53.7 23.3 50.1 17.4 50.1 13.7 53.8 13.2 54.3 12.7 55 12.3 55.6 8.9 55.8 6.1 58.6 6 62L6 64 6 93 90 93 90 64 90 62C89.8 57.4 85.8 53.8 81.2 54 80.4 54 79.6 54.2 78.9 54.4 72.1 49 62.2 50.1 56.8 56.9L56.4 57.6C56.7 57.9 57 58.1 57.3 58.4 62.4 63.5 62.4 71.7 57.3 76.8L53.3 80.8C48.3 85.9 40.1 86 34.9 81 29.8 76 29.7 67.8 34.7 62.6 34.8 62.5 34.8 62.5 34.9 62.4L35.4 61.9 37 60.2Z" fill="#FFFFFF" fill-rule="nonzero" fill-opacity="1"/><path d="M45.1 44.7C46.1 45.9 46.8 47.3 47.3 48.8 47.4 49.4 47.5 50.1 47.5 50.7L47.5 58.7C45.3 58.8 43.2 59.7 41.6 61.3L37.6 65.3C34.1 68.8 34.1 74.5 37.6 78 41.1 81.5 46.8 81.5 50.3 78L54.3 74C57.8 70.5 57.8 64.8 54.3 61.3 54.2 61.2 54.2 61.2 54.1 61.1L47.1 68.1 51.7 58.2 51.6 50.6C51.7 48.8 52.1 47.1 52.8 45.5 53.7 43.1 55.4 41.1 57.6 39.8 61.8 39.9 69.3 39.2 74 34.5 80.8 27.7 79.1 15.1 79.1 15.1 79.1 15.1 66.4 13.4 59.7 20.2 54.8 25.1 54.3 32.9 54.4 37 52.1 38.7 50.4 40.9 49.2 43.4 48.9 43 48.6 42.6 48.3 42.2 48.4 38.8 47.9 32.4 44 28.4 38.4 22.8 28 24.2 28 24.2 28 24.2 26.6 34.6 32.2 40.2 36 43.9 41.6 44.6 45.1 44.7Z" fill="#FFFFFF" fill-rule="nonzero" fill-opacity="1"/></g></g></svg>