<svg width="98" height="97" xmlns="http://www.w3.org/2000/svg" xmlns:xlink="http://www.w3.org/1999/xlink" xml:space="preserve" overflow="hidden"><g transform="translate(-98 -3249)"><g><g><g><g><path d="M137 3292C137 3295.31 134.314 3298 131 3298 127.686 3298 125 3295.31 125 3292 125 3288.69 127.686 3286 131 3286 134.314 3286 137 3288.69 137 3292Z" fill="#000000" fill-rule="nonzero" fill-opacity="1"/><path d="M169 3292C169 3295.31 166.314 3298 163 3298 159.686 3298 157 3295.31 157 3292 157 3288.69 159.686 3286 163 3286 166.314 3286 169 3288.69 169 3292Z" fill="#000000" fill-rule="nonzero" fill-opacity="1"/><path d="M165.2 3311C164.5 3311 163.9 3311.3 163.6 3311.8 159.8 3316.8 153.8 3319.9 147 3319.9 140.2 3319.9 134.3 3316.8 130.4 3311.8 130 3311.3 129.4 3311 128.8 3311 127.7 3311 126.8 3311.9 126.8 3313 126.8 3313.4 126.9 3313.8 127.2 3314.2 131.8 3320.2 138.9 3324 147 3324 155.1 3324 162.2 3320.2 166.8 3314.2 167 3313.9 167.2 3313.5 167.2 3313 167.2 3311.9 166.3 3311 165.2 3311Z" fill="#000000" fill-rule="nonzero" fill-opacity="1"/><path d="M147 3264C165.7 3264 181 3279.3 181 3298 181 3316.7 165.7 3332 147 3332 128.3 3332 113 3316.7 113 3298 113 3279.3 128.3 3264 147 3264M147 3260C126 3260 109 3277 109 3298 109 3319 126 3336 147 3336 168 3336 185 3319 185 3298 185 3277 168 3260 147 3260Z" fill="#000000" fill-rule="nonzero" fill-opacity="1"/></g></g></g></g></g></svg>