<svg width="98" height="97" xmlns="http://www.w3.org/2000/svg" xmlns:xlink="http://www.w3.org/1999/xlink" xml:space="preserve" overflow="hidden"><g transform="translate(-98 -3524)"><g><g><g><g><path d="M177 3595.79C174.942 3595.87 172.913 3596.3 171 3597.06 169.726 3597.59 168.375 3597.9 167 3598 165.625 3597.9 164.274 3597.59 163 3597.06 161.087 3596.3 159.058 3595.87 157 3595.79 154.942 3595.87 152.913 3596.3 151 3597.06 149.726 3597.59 148.375 3597.9 147 3598 145.625 3597.9 144.274 3597.59 143 3597.06 141.087 3596.3 139.058 3595.87 137 3595.79 134.942 3595.87 132.913 3596.3 131 3597.06 129.726 3597.59 128.375 3597.9 127 3598 125.625 3597.9 124.274 3597.59 123 3597.06 121.087 3596.3 119.058 3595.87 117 3595.79 114.942 3595.87 112.913 3596.3 111 3597.06 109.726 3597.59 108.375 3597.9 107 3598L107 3604C109.058 3603.92 111.087 3603.49 113 3602.73 114.27 3602.18 115.621 3601.84 117 3601.73 118.379 3601.84 119.73 3602.18 121 3602.73 122.913 3603.49 124.942 3603.92 127 3604 129.058 3603.92 131.087 3603.49 133 3602.73 134.27 3602.18 135.621 3601.84 137 3601.73 138.375 3601.83 139.726 3602.14 141 3602.67 142.908 3603.46 144.938 3603.91 147 3604 149.058 3603.92 151.087 3603.49 153 3602.73 154.27 3602.18 155.621 3601.84 157 3601.73 158.379 3601.84 159.73 3602.18 161 3602.73 162.913 3603.49 164.942 3603.92 167 3604 169.058 3603.92 171.087 3603.49 173 3602.73 174.27 3602.18 175.621 3601.84 177 3601.73 178.375 3601.83 179.726 3602.14 181 3602.67 182.908 3603.46 184.938 3603.91 187 3604L187 3598C185.625 3597.9 184.274 3597.59 183 3597.06 181.087 3596.3 179.058 3595.87 177 3595.79Z" fill="#000000" fill-rule="nonzero" fill-opacity="1"/><path d="M183 3585.06C181.087 3584.3 179.058 3583.87 177 3583.79 174.942 3583.87 172.913 3584.3 171 3585.06 169.726 3585.59 168.375 3585.9 167 3586 165.625 3585.9 164.274 3585.59 163 3585.06 162.305 3584.79 161.594 3584.56 160.87 3584.38 152.53 3580.59 148.27 3572.96 148.87 3567.06 149.37 3561.97 152.43 3556.24 157.97 3555.67 163.31 3555.07 168.2 3558.71 169.16 3564 169.294 3564.9 170.095 3565.54 171 3565.48 171.48 3565.44 171.923 3565.2 172.23 3564.83 172.527 3564.45 172.661 3563.98 172.6 3563.5 170.81 3550.15 158.91 3541.18 145 3542.61 137.45 3543.39 130.36 3548.11 123.92 3556.61 123.06 3557.74 122.22 3558.88 121.38 3560.02 116.91 3566.02 112.65 3571.82 107.04 3575.74L107.04 3592C109.098 3591.92 111.127 3591.49 113.04 3590.73 114.31 3590.18 115.661 3589.84 117.04 3589.73 118.419 3589.84 119.77 3590.18 121.04 3590.73 122.941 3591.49 124.956 3591.92 127 3592 129.058 3591.92 131.087 3591.49 133 3590.73 134.27 3590.18 135.621 3589.84 137 3589.73 138.375 3589.83 139.726 3590.14 141 3590.67 142.908 3591.46 144.938 3591.91 147 3592 149.058 3591.92 151.087 3591.49 153 3590.73 154.27 3590.18 155.621 3589.84 157 3589.73 158.379 3589.84 159.73 3590.18 161 3590.73 162.913 3591.49 164.942 3591.92 167 3592 169.058 3591.92 171.087 3591.49 173 3590.73 174.27 3590.18 175.621 3589.84 177 3589.73 178.375 3589.83 179.726 3590.14 181 3590.67 182.908 3591.46 184.938 3591.91 187 3592L187 3586C185.625 3585.9 184.274 3585.59 183 3585.06Z" fill="#000000" fill-rule="nonzero" fill-opacity="1"/></g></g></g></g></g></svg>