<?xml version="1.0" encoding="UTF-8"?>
<svg id="Layer_1" xmlns="http://www.w3.org/2000/svg" version="1.1" viewBox="0 0 44 44">
  <!-- Generator: Adobe Illustrator 29.1.0, SVG Export Plug-In . SVG Version: 2.1.0 Build 142)  -->
  <defs>
    <style>
      .st0 {
        fill: #fff;
      }
    </style>
  </defs>
  <path class="st0" d="M22,24.8c-1.5,0-2.8-1.2-2.8-2.8s1.2-2.8,2.8-2.8,2.8,1.2,2.8,2.8-1.2,2.8-2.8,2.8ZM37.6,21.4l-2.8-.9-7-2.2,2.2-4.4-4.3,2.2-2.2-7-.9-2.8-.5-1.8-.6,1.8-.9,2.8-2.2,7-4.4-2.2,2.2,4.3-7,2.2-2.9.9-1.8.6,1.8.6,2.8.9,7,2.2-2.2,4.3,4.3-2.2,2.2,7,.9,2.8.6,1.8.6-1.8.9-2.8,2.2-7,4.3,2.2-2.3-4.3,7-2.2,2.8-.9,1.8-.6-1.8-.5Z"/>
  <path class="st0" d="M34.3,25.5c-.5,1.6-1.2,3.1-2.3,4.4-.6.8-1.3,1.5-2.1,2.1-1.3,1.1-2.8,1.8-4.5,2.3l-.3,1-.6,2.1c3-.5,5.8-1.9,8.1-4l.8-.8c2.1-2.2,3.4-5,3.9-8l-2.1.7-1,.3Z"/>
  <path class="st0" d="M25.5,9.7c1.6.5,3.1,1.2,4.4,2.3.8.6,1.5,1.3,2.1,2.1,1.1,1.3,1.8,2.8,2.3,4.4l1,.3,2.1.6c-.5-3-1.9-5.8-3.9-8-.3-.3-.5-.6-.8-.8-2.2-2.1-5-3.4-8-3.9l.6,2.1.3,1Z"/>
  <path class="st0" d="M9.7,18.4c.5-1.6,1.2-3.1,2.3-4.4.6-.8,1.3-1.5,2.1-2.1,1.3-1.1,2.8-1.8,4.4-2.2l.3-.9.6-2.1c-3,.5-5.8,1.8-8,3.9-.3.3-.6.5-.8.8-2.1,2.2-3.5,5-4,8l2.1-.6,1-.3Z"/>
  <path class="st0" d="M18.5,34.3c-1.6-.5-3.1-1.2-4.4-2.3-.8-.6-1.5-1.3-2.1-2.1-1.1-1.3-1.8-2.8-2.3-4.4l-1-.3-2.1-.6c.5,3,1.9,5.8,3.9,8,.3.3.6.5.8.8,2.2,2.1,5,3.4,8,3.9l-.7-2.1-.3-1Z"/>
</svg>