<?xml version="1.0" encoding="UTF-8"?>
<svg id="Layer_1" xmlns="http://www.w3.org/2000/svg" version="1.1" viewBox="0 0 40 40">
  <!-- Generator: Adobe Illustrator 29.1.0, SVG Export Plug-In . SVG Version: 2.1.0 Build 142)  -->
  <defs>
    <style>
      .st0 {
        fill: #fff;
      }
    </style>
  </defs>
  <path class="st0" d="M29.2,27.5c-1.5,0-2.8,1-3.2,2.5h-5.1v-6.8c1.8-.5,2.8-2.3,2.4-4.1-.3-1.2-1.2-2.1-2.4-2.4v-8.4h-6.8c-.5-1.8-2.3-2.9-4.1-2.4-1.8.5-2.9,2.3-2.4,4.1.5,1.8,2.3,2.9,4.1,2.4,1.2-.3,2.1-1.2,2.4-2.4h5.1v6.8c-1.8.5-2.8,2.3-2.4,4.1.3,1.2,1.2,2.1,2.4,2.4v8.4h6.8c.5,1.8,2.3,2.9,4.1,2.4,1.8-.5,2.9-2.3,2.4-4.1-.4-1.5-1.7-2.5-3.2-2.5Z"/>
</svg>