<?xml version="1.0" encoding="UTF-8"?>
<svg id="Layer_1" xmlns="http://www.w3.org/2000/svg" version="1.1" viewBox="0 0 44 44">
  <!-- Generator: Adobe Illustrator 29.1.0, SVG Export Plug-In . SVG Version: 2.1.0 Build 142)  -->
  <defs>
    <style>
      .st0 {
        fill: #fff;
      }
    </style>
  </defs>
  <path class="st0" d="M38,17.9h-.4l-1.2-3.2c2.8-1.6,3.7-5,2.2-7.8-1.6-2.8-5-3.7-7.8-2.2-1.3.7-2.3,2-2.7,3.5l-4.3-.5c-.3-2-2.2-3.4-4.2-3.1-1.8.3-3.2,1.8-3.2,3.7s.2,1.3.5,1.9l-5.1,5c-1-.7-2.2-1.1-3.4-1.1-3.2,0-5.7,2.6-5.7,5.7s2.6,5.7,5.7,5.7l1.1,6.9c-1.9.8-2.8,3-1.9,4.9.8,1.9,3,2.8,4.9,1.9,1.7-.7,2.6-2.7,2.1-4.5l4-2.1c2.6,2.9,7.1,3.1,10,.5,1.5-1.3,2.3-3.3,2.3-5.2s0-1.1-.2-1.6l4.4-2.3c1.4,1.6,3.7,1.7,5.3.3,1.6-1.4,1.7-3.7.3-5.3-.9-.7-1.9-1.2-2.9-1.2ZM38,19.3c.6,0,1.1.5,1.1,1.1s-.5,1.1-1.1,1.1-1.1-.5-1.1-1.1h0c0-.6.5-1.1,1.1-1.1ZM33.6,6.2c.9,0,1.6.7,1.6,1.6s-.7,1.6-1.6,1.6-1.6-.7-1.6-1.6h0c0-.9.7-1.6,1.6-1.6ZM30.3,11.5c0-.2.1-.5.3-.6.5-.3,1-.6,1.6-.7.4-.1.9-.2,1.3-.2s.9,0,1.3.2c.5.1,1.1.4,1.6.8.2.1.3.4.3.6v1.2h-6.4v-1.3ZM20.1,6c.6,0,1.1.5,1.1,1.1s-.5,1.1-1.1,1.1-1.1-.5-1.1-1.1h0c0-.5.5-1.1,1.1-1.1ZM18,9.4c0-.2,0-.3.2-.4.3-.2.7-.4,1.1-.5.3,0,.6-.1.9-.1s.6,0,.9.1c.4,0,.7.3,1,.5.1,0,.2.3.2.4v.8h-4.2v-.9h0ZM8.3,16.3c.9,0,1.6.7,1.6,1.6s-.7,1.6-1.6,1.6-1.6-.7-1.6-1.6h0c0-.9.7-1.6,1.6-1.6ZM5.1,22.8v-1.2c0-.2.1-.5.3-.6.5-.3,1-.6,1.6-.7.4-.1.9-.2,1.3-.2s.9,0,1.3.2c.5.1,1.1.4,1.6.8.2.1.3.4.3.6v1.2h-6.4ZM13.1,37.7h-4.3v-.8c0-.2,0-.3.2-.4.3-.2.7-.4,1.1-.5.3,0,.6-.1.9-.1s.6,0,.9.1c.4,0,.7.3,1,.5.1,0,.2.3.2.4v.8ZM9.9,34.5c0-.6.5-1.1,1.1-1.1s1.1.5,1.1,1.1-.5,1.1-1.1,1.1c-.6,0-1-.5-1.1-1.1ZM13.5,33.2c-.6-.6-1.4-1-2.2-1.1l-1.1-6.9c1.1-.4,2.1-1.1,2.8-2l4.3,2.2c-.7,1.8-.6,3.9.4,5.6l-4,2ZM18,23.9l-4.2-2.2c.2-.6.3-1.2.3-1.8,0-1.2-.4-2.3-1.1-3.3l5.1-5c1.7,1.1,4,.6,5.1-1.2.1-.2.2-.5.3-.7l4.3.5c0,1.6.9,3.2,2.2,4.2l-3.8,7c-3-1.2-6.4-.1-8.3,2.5ZM25.8,25.6c0,1.1-.9,2-2,2s-2-.9-2-2,.9-2,2-2h0c1.1,0,2,.9,2,2ZM27.8,31.6h-7.9v-1.5c0-.3.1-.6.4-.8.6-.4,1.2-.7,1.9-1,.5-.1,1.1-.2,1.6-.2s1.1,0,1.6.2c.7.2,1.4.5,1.9,1,.2.2.4.5.4.8v1.5ZM34.3,21.7c0,.3,0,.6.1.8l-4.2,2.2c-.5-1-1.3-1.8-2.2-2.5l3.8-7c.6.2,1.2.3,1.9.3s.7,0,1.1,0l1.2,3.2c-1.1.6-1.7,1.8-1.7,3ZM40.1,23.5h-4.3v-.8c0-.2,0-.3.2-.4.3-.2.7-.4,1.1-.5.3,0,.6-.1.9-.1s.6,0,.9.1c.4,0,.7.3,1,.5.1,0,.2.3.2.4v.8Z"/>
</svg>