<?xml version="1.0" encoding="UTF-8"?>
<svg id="Layer_1" xmlns="http://www.w3.org/2000/svg" version="1.1" viewBox="0 0 40 40">
  <!-- Generator: Adobe Illustrator 29.1.0, SVG Export Plug-In . SVG Version: 2.1.0 Build 142)  -->
  <defs>
    <style>
      .st0 {
        fill: #fff;
      }
    </style>
  </defs>
  <path class="st0" d="M18.9,23l.7,2-.4.4-2-.7h0c-.5-.5-.5-1.2,0-1.7.5-.5,1.2-.5,1.8,0ZM4.9,13.8l11.8,11.8,4.6,1.5-1.5-4.5-11.8-11.8-3.1,3.1Z"/>
  <path class="st0" d="M2.3,10c-.3.4-.3,1,0,1.3l1.7,1.7,3-3-1.7-1.7h0c-.4-.4-1-.4-1.3,0l-1.7,1.7s0,0,0,0Z"/>
  <path class="st0" d="M29.2,25.4h-7.2l.6,1.7h6.6v-1.7Z"/>
  <path class="st0" d="M29.2,15.4h-14.8l1.7,1.7h13.1v-1.7Z"/>
  <path class="st0" d="M8.3,19v16c0,.9.8,1.7,1.7,1.7h22.5c.9,0,1.7-.8,1.7-1.7V7.5c0-.9-.8-1.7-1.7-1.7h-7.1v-.8c0-.9-.8-1.7-1.7-1.7h-5c-.9,0-1.7.8-1.7,1.7v.8h-7.1c-.9,0-1.7.8-1.7,1.7v1.8l.5.5h0c0,0,2,2,2,2v-3.5h4.6v2.5h11.7v-2.5h4.6v25.8H10.8v-12.7l-2.5-2.5ZM22.5,6.2c0,.7-.5,1.2-1.2,1.2s-1.2-.5-1.2-1.2.5-1.2,1.2-1.2.7.1.9.4c.2.2.4.5.4.9Z"/>
  <path class="st0" d="M29.2,20.4h-9.8l1.7,1.7h8.1v-1.7Z"/>
</svg>