<?xml version="1.0" encoding="UTF-8"?>
<svg id="Layer_1" xmlns="http://www.w3.org/2000/svg" version="1.1" viewBox="0 0 40 40">
  <!-- Generator: Adobe Illustrator 29.1.0, SVG Export Plug-In . SVG Version: 2.1.0 Build 142)  -->
  <defs>
    <style>
      .st0 {
        fill: #fff;
      }
    </style>
  </defs>
  <path class="st0" d="M17.5,11.2h6.7v-1.2c0-.9-.8-1.7-1.7-1.7H5c-.9,0-1.7.8-1.7,1.7v11.2c0,.9.8,1.7,1.7,1.7h2.5v4.2l4.2-4.2h2.5v-8.3c0-1.8,1.5-3.3,3.3-3.3Z"/>
  <path class="st0" d="M35,12.9h-17.5c-.9,0-1.7.8-1.7,1.7v11.2c0,.9.8,1.7,1.7,1.7h10.8l4.2,4.2v-4.2h2.5c.9,0,1.7-.8,1.7-1.7v-11.2c0-.9-.8-1.7-1.7-1.7Z"/>
</svg>