<?xml version="1.0" encoding="UTF-8"?>
<svg id="Layer_1" xmlns="http://www.w3.org/2000/svg" version="1.1" viewBox="0 0 38 38">
  <!-- Generator: Adobe Illustrator 29.1.0, SVG Export Plug-In . SVG Version: 2.1.0 Build 142)  -->
  <defs>
    <style>
      .st0 {
        fill: #fff;
      }
    </style>
  </defs>
  <path class="st0" d="M29.6,8.6c-.9,0-1.7-.8-1.7-1.7s.8-1.7,1.7-1.7,1.7.8,1.7,1.7h0c0,1-.8,1.7-1.7,1.7h0ZM29.6,2.8c-1.3,0-2.6.7-3.4,1.8-.8,1.1-.9,2.5-.4,3.8l1.9,4.1,1.6,3.4c.1.2.4.3.5.2,0,0,.1,0,.2-.2l1.6-3.4,1.9-4.1c.5-1.3.3-2.7-.4-3.8-.7-1.1-2-1.8-3.3-1.8Z"/>
  <path class="st0" d="M9.4,24.5c-1.2,0-2.2-1-2.2-2.2s1-2.2,2.2-2.2,2.2,1,2.2,2.2h0c0,1.2-1,2.2-2.2,2.2h0ZM9.4,17.2c-1.7,0-3.2.8-4.2,2.2-.9,1.4-1.1,3.2-.5,4.7l2.3,5.1,2,4.2c.1.2.4.3.7.2,0,0,.2-.1.2-.2l2-4.2,2.3-5.1c.6-1.5.4-3.3-.5-4.7-.9-1.4-2.5-2.2-4.2-2.2Z"/>
  <path class="st0" d="M15,33.6h-2.4v-2.4h2.4v2.4Z"/>
  <path class="st0" d="M16.6,33.6v-2.4c.9,0,1.6,0,2.3,0v2.4c-.7,0-1.5,0-2.3,0Z"/>
  <path class="st0" d="M20.6,33.5v-2.4c.7,0,1.5,0,2.2-.2l.2,2.4c-.7,0-1.5.1-2.4.2Z"/>
  <path class="st0" d="M24.7,33.2l-.4-2.3c.8-.1,1.5-.2,2.2-.4l.6,2.3c-.8.2-1.6.4-2.5.5Z"/>
  <path class="st0" d="M28.8,32.1l-.9-2.2c.5-.2.9-.5,1.3-.9l2.1,1.1c-.6.9-1.4,1.6-2.4,2Z"/>
  <path class="st0" d="M29.1,28.2c0-.5-.3-1-.7-1.4l1.7-1.7c.8.8,1.2,1.7,1.3,2.8l-2.3.3Z"/>
  <path class="st0" d="M27.5,26.1c-.6-.3-1.3-.6-2-.8l.7-2.3c.8.2,1.7.6,2.4.9l-1.1,2.1Z"/>
  <path class="st0" d="M24,24.9l-.6-.2c-.6-.2-1.1-.3-1.7-.4l.6-2.3c.5.2,1.1.3,1.6.4l.6.2-.6,2.3Z"/>
  <path class="st0" d="M20,23.8c-.9-.4-1.8-1-2.5-1.7l1.9-1.3c.4.4.9.8,1.4.9l-.9,2.2Z"/>
  <path class="st0" d="M19.4,19.9l-2.4-.2c0-1.1.7-2.2,1.6-2.9l1.5,1.9c-.7.6-.7,1-.7,1.1Z"/>
  <path class="st0" d="M21.2,18.1l-.9-2.2c.8-.4,1.6-.6,2.5-.8l.6,2.3c-.7.2-1.4.4-2.1.7Z"/>
  <path class="st0" d="M24.7,17.1l-.4-2.3c1-.2,1.9-.3,2.5-.3l.2,2.4c-.4,0-1.3.1-2.3.3Z"/>
</svg>