<?xml version="1.0" encoding="UTF-8"?>
<svg id="Layer_1" xmlns="http://www.w3.org/2000/svg" version="1.1" viewBox="0 0 36 36">
  <!-- Generator: Adobe Illustrator 29.1.0, SVG Export Plug-In . SVG Version: 2.1.0 Build 142)  -->
  <defs>
    <style>
      .st0 {
        fill: #fff;
      }
    </style>
  </defs>
  <path class="st0" d="M26.2.8H9.8c-.8,0-1.5.7-1.5,1.5v31.5c0,.8.7,1.5,1.5,1.5h16.5c.8,0,1.5-.7,1.5-1.5V2.2c0-.8-.7-1.5-1.5-1.5ZM16.7,2.2h2.6c.3,0,.6.3.6.6s-.3.6-.6.6h-2.6c-.3,0-.6-.3-.6-.6s.3-.6.6-.6ZM26.2,31.1H9.8V4.9h16.5v26.2Z"/>
  <path class="st0" d="M15.8,15c1.7,0,3-1.3,3-3s-1.3-3-3-3-3,1.3-3,3,1.3,3,3,3ZM15.7,10.2c.5,0,.8.4.8.8s-.4.8-.8.8-.8-.4-.8-.8c0-.5.4-.8.8-.8ZM14.1,12.9c0-.1,0-.3.2-.3.2-.2.5-.3.8-.4.2,0,.5-.1.7-.1.2,0,.5,0,.7.1.3,0,.6.2.8.4.1,0,.2.2.2.3v.6h-3.4v-.6Z"/>
  <path class="st0" d="M16.7,21.9c.2.3.4.6.5,1l2.2-1.3c-.3-.3-.5-.6-.6-.9l-2.2,1.3Z"/>
  <path class="st0" d="M17.5,15.1l1.7,1.9c.2-.3.5-.6.8-.8l-1.7-1.9c-.3.3-.5.5-.9.7Z"/>
  <path class="st0" d="M22.1,16.1c-1.7,0-3,1.3-3,3s1.3,3,3,3,3-1.3,3-3-1.3-3-3-3ZM22.1,17.3c.5,0,.8.4.8.8s-.4.8-.8.8-.8-.4-.8-.8c0-.5.4-.8.8-.8ZM23.8,20.7h-3.4v-.6c0-.1,0-.3.2-.3.2-.2.5-.3.8-.4.2,0,.5-.1.7-.1.2,0,.5,0,.7.1.3,0,.6.2.8.4.1,0,.2.2.2.3v.6Z"/>
  <path class="st0" d="M14.7,15.4l-.7,5.1c.4,0,.8,0,1.1.2l.7-5.1h0c-.4,0-.7,0-1.1-.2Z"/>
  <path class="st0" d="M16.9,24c0-1.7-1.3-3-3-3s-3,1.3-3,3,1.3,3,3,3,3-1.3,3-3ZM13.9,22.2c.5,0,.8.4.8.8s-.4.8-.8.8-.8-.4-.8-.8c0-.5.4-.8.8-.8ZM15.5,25.5h-3.4v-.6c0-.1,0-.3.2-.3.2-.2.5-.3.8-.4.2,0,.5-.1.7-.1.2,0,.5,0,.7.1.3,0,.6.2.8.4.1,0,.2.2.2.3v.6Z"/>
</svg>