<?xml version="1.0" encoding="UTF-8"?>
<svg xmlns="http://www.w3.org/2000/svg" version="1.1" viewBox="0 0 722.6 410.4">
  <!-- Generator: Adobe Illustrator 29.1.0, SVG Export Plug-In . SVG Version: 2.1.0 Build 142)  -->
  <defs>
    <style>
      .st0, .st1, .st2 {
        stroke-miterlimit: 10;
      }

      .st0, .st2 {
        fill: none;
        stroke: #010101;
      }

      .st3 {
        fill: #010101;
      }

      .st4 {
        fill: #231f20;
      }

      .st1 {
        fill: #fff;
        stroke: #231f20;
        stroke-width: 3px;
      }

      .st2 {
        stroke-width: .9px;
      }

      .st5 {
        fill: #bf2026;
      }

      .st6 {
        fill: #31b44a;
      }
    </style>
  </defs>
  <g id="Layer_2">
    <rect class="st1" x="4" y="5.6" width="713.8" height="400" rx="5.5" ry="5.5"/>
    <line class="st0" x1="146.7" y1="5.6" x2="146.7" y2="405.6"/>
    <line class="st0" x1="289.5" y1="5.6" x2="289.5" y2="405.6"/>
    <line class="st0" x1="432.2" y1="5.6" x2="432.2" y2="405.6"/>
    <line class="st0" x1="575" y1="5.6" x2="575" y2="405.6"/>
    <line class="st2" x1="4" y1="96.9" x2="717.7" y2="96.9"/>
    <line class="st2" x1="4" y1="261.7" x2="717.7" y2="261.7"/>
  </g>
  <g id="Layer_1">
    <g>
      <path class="st3" d="M72.5,215.3c-15.5,0-28-12.5-28-28s12.5-28,28-28,28,12.5,28,28h0c0,15.5-12.5,28-28,28ZM96.2,162.9l3-3c1.1-1.2,1.1-3.1,0-4.2s-3-1.2-4.2-.1l-3.4,3.5c-4.8-3.2-10.3-5.2-16-5.6v-4.2h9v-6h-24v6h9v4.1c-18.8,1.6-32.6,18.2-31,36.9,1.6,18.7,18.2,32.6,36.9,31s32.6-18.2,31-36.9c-.7-8.2-4.3-15.8-10.2-21.5Z"/>
      <path class="st3" d="M55.5,204.3c9.4,9.4,24.6,9.4,33.9,0,9.3-9.4,9.4-24.6,0-33.9-4.5-4.5-10.6-7-16.9-7v24l-17,16.9Z"/>
    </g>
    <g>
      <g>
        <path class="st3" d="M72.5,371c-15.5,0-28-12.5-28-28s12.5-28,28-28,28,12.5,28,28h0c0,15.5-12.5,28-28,28ZM96.2,318.6l3-3c1.1-1.2,1.1-3.1,0-4.2s-3-1.2-4.2-.1l-3.4,3.5c-4.8-3.2-10.3-5.2-16-5.6v-4.2h9v-6h-24v6h9v4.1c-18.8,1.6-32.6,18.2-31,36.9,1.6,18.7,18.2,32.6,36.9,31s32.6-18.2,31-36.9c-.7-8.2-4.3-15.8-10.2-21.5Z"/>
        <path class="st3" d="M55.5,360c9.4,9.4,24.6,9.4,33.9,0,9.3-9.4,9.4-24.6,0-33.9-4.5-4.5-10.6-7-16.9-7v24l-17,16.9Z"/>
      </g>
      <path class="st5" d="M121.3,308.8l-10.9-10.8-34.5,34.2-34.5-34.2-10.9,10.8,34.5,34.2-34.5,34.2,10.9,10.8,34.5-34.2,34.5,34.2,10.9-10.8-34.5-34.2,34.5-34.2Z"/>
    </g>
    <path class="st6" d="M386,158.1l-31.5,36.2-15.1-18.8-5.2,6,20.1,25.1,5.3-6,31.4-36.2-5-6.3Z"/>
    <path class="st6" d="M537,158.1l-31.5,36.2-15.1-18.8-5.2,6,20.1,25.1,5.3-6,31.4-36.2-5-6.3Z"/>
    <path class="st5" d="M382.9,327.6l-4.9-4.9-15.4,15.4-15.4-15.4-4.9,4.9,15.4,15.4-15.4,15.4,4.9,4.9,15.4-15.4,15.4,15.4,4.9-4.9-15.4-15.4,15.4-15.4Z"/>
    <path class="st5" d="M533.9,327.6l-4.9-4.9-15.4,15.4-15.4-15.4-4.9,4.9,15.4,15.4-15.4,15.4,4.9,4.9,15.4-15.4,15.4,15.4,4.9-4.9-15.4-15.4,15.4-15.4Z"/>
  </g>
  <g id="Layer_4">
    <g>
      <path class="st4" d="M600.8,24.7c2.1,0,3.4,1,4.1,2.2l-1.8,1c-.5-.7-1.3-1.3-2.4-1.3-1.8,0-3.1,1.4-3.1,3.3s1.3,3.3,3.1,3.3,1.7-.4,2.2-.8v-1.2h-2.7v-1.8h4.8v3.8c-1,1.1-2.4,1.9-4.3,1.9-2.9,0-5.3-2-5.3-5.2s2.4-5.2,5.3-5.2Z"/>
      <path class="st4" d="M606.3,31.2c0-2.1,1.4-3.8,3.8-3.8s3.8,1.7,3.8,3.8-1.4,3.8-3.8,3.8-3.8-1.7-3.8-3.8ZM612,31.2c0-1.1-.7-2.1-1.9-2.1s-1.8,1-1.8,2.1.7,2.1,1.8,2.1,1.9-1,1.9-2.1Z"/>
      <path class="st4" d="M614.9,31.2c0-2.1,1.4-3.8,3.8-3.8s3.8,1.7,3.8,3.8-1.4,3.8-3.8,3.8-3.8-1.7-3.8-3.8ZM620.6,31.2c0-1.1-.7-2.1-1.9-2.1s-1.8,1-1.8,2.1.7,2.1,1.8,2.1,1.9-1,1.9-2.1Z"/>
      <path class="st4" d="M629,34.9v-.9c-.6.7-1.4,1.1-2.2,1.1-1.8,0-3.2-1.4-3.2-3.8s1.4-3.8,3.2-3.8,1.7.4,2.2,1.1v-3.7h1.9v10h-1.9ZM629,29.9c-.3-.5-1-.8-1.7-.8-1.1,0-1.8.9-1.8,2.1s.8,2.1,1.8,2.1,1.3-.3,1.7-.8v-2.6Z"/>
      <path class="st4" d="M638.9,29.3v5.6h-1.9v-5.6h-1.2v-1.7h1.2v-.4c0-1.6,1-2.5,2.4-2.5s1,.1,1.4.3l-.4,1.3c-.2-.1-.4-.1-.6-.1-.5,0-.9.4-.9,1.1v.4h1.5v1.7h-1.5Z"/>
      <path class="st4" d="M641,31.2c0-2.1,1.4-3.8,3.8-3.8s3.8,1.7,3.8,3.8-1.4,3.8-3.8,3.8-3.8-1.7-3.8-3.8ZM646.7,31.2c0-1.1-.7-2.1-1.9-2.1s-1.8,1-1.8,2.1.7,2.1,1.8,2.1,1.9-1,1.9-2.1Z"/>
      <path class="st4" d="M650.1,34.9v-7.2h1.9v1c.5-.6,1.4-1.2,2.3-1.2v1.9c-.1,0-.3,0-.5,0-.6,0-1.5.3-1.8.8v4.8h-1.9Z"/>
      <path class="st4" d="M596.2,50.6c.5.5,1.6,1,2.5,1s1.2-.3,1.2-.7-.6-.7-1.5-.9c-1.2-.2-2.9-.5-2.9-2.3s1.1-2.3,3-2.3,2.2.4,2.9,1l-.8,1.3c-.4-.5-1.3-.8-2.1-.8s-1.1.3-1.1.7.6.6,1.4.8c1.2.2,2.9.6,2.9,2.4s-1.1,2.3-3.1,2.3-2.5-.4-3.2-1.1l.8-1.3Z"/>
      <path class="st4" d="M603.5,51.1v-3.8h-1.2v-1.7h1.2v-2h1.9v2h1.5v1.7h-1.5v3.3c0,.5.2.8.7.8s.6-.1.7-.2l.4,1.4c-.3.3-.8.5-1.6.5-1.3,0-2.1-.7-2.1-2Z"/>
      <path class="st4" d="M613.1,52.9v-.9c-.5.6-1.4,1.1-2.5,1.1s-2.3-.9-2.3-2.3v-5.1h1.9v4.4c0,1,.5,1.3,1.3,1.3s1.3-.4,1.7-.8v-4.9h1.9v7.2h-1.9Z"/>
      <path class="st4" d="M621.8,52.9v-.9c-.6.7-1.4,1.1-2.2,1.1-1.8,0-3.2-1.4-3.2-3.8s1.4-3.8,3.2-3.8,1.7.4,2.2,1.1v-3.7h1.9v10h-1.9ZM621.8,47.9c-.3-.5-1-.8-1.7-.8-1.1,0-1.8.9-1.8,2.1s.8,2.1,1.8,2.1,1.3-.3,1.7-.8v-2.6Z"/>
      <path class="st4" d="M628.9,45.4c2.2,0,3.6,1.6,3.6,4v.4h-5.4c.1.9.9,1.7,2.1,1.7s1.5-.3,1.9-.7l.8,1.2c-.7.7-1.9,1-3,1-2.2,0-3.9-1.5-3.9-3.8s1.5-3.8,3.8-3.8ZM627.2,48.5h3.6c0-.7-.5-1.6-1.8-1.6s-1.7.9-1.8,1.6Z"/>
      <path class="st4" d="M638.8,52.9v-4.4c0-1-.5-1.4-1.3-1.4s-1.3.4-1.7.9v4.9h-1.9v-7.2h1.9v.9c.5-.6,1.3-1.1,2.5-1.1s2.4.9,2.4,2.3v5.1h-1.9Z"/>
      <path class="st4" d="M643,51.1v-3.8h-1.2v-1.7h1.2v-2h1.9v2h1.5v1.7h-1.5v3.3c0,.5.2.8.7.8s.6-.1.7-.2l.4,1.4c-.3.3-.8.5-1.6.5-1.3,0-2.1-.7-2.1-2Z"/>
      <path class="st4" d="M647.9,50.6c.5.5,1.6,1,2.5,1s1.2-.3,1.2-.7-.6-.7-1.5-.9c-1.2-.2-2.9-.5-2.9-2.3s1.1-2.3,3-2.3,2.2.4,2.9,1l-.8,1.3c-.4-.5-1.3-.8-2.1-.8s-1.1.3-1.1.7.6.6,1.4.8c1.2.2,2.9.6,2.9,2.4s-1.1,2.3-3.1,2.3-2.5-.4-3.2-1.1l.8-1.3Z"/>
      <path class="st4" d="M654.6,51.8c0-.7.5-1.2,1.2-1.2s1.2.6,1.2,1.2-.6,1.2-1.2,1.2-1.2-.6-1.2-1.2ZM658.5,51.8c0-.7.5-1.2,1.2-1.2s1.2.6,1.2,1.2-.6,1.2-1.2,1.2-1.2-.6-1.2-1.2ZM662.3,51.8c0-.7.5-1.2,1.2-1.2s1.2.6,1.2,1.2-.6,1.2-1.2,1.2-1.2-.6-1.2-1.2Z"/>
    </g>
    <g>
      <path class="st4" d="M462.6,34.9v-7.2l-2.8,7.2h-.9l-2.8-7.2v7.2h-2.1v-10h3l2.4,6.2,2.4-6.2h3v10h-2.1Z"/>
      <path class="st4" d="M466.3,31.2c0-2.1,1.4-3.8,3.8-3.8s3.8,1.7,3.8,3.8-1.4,3.8-3.8,3.8-3.8-1.7-3.8-3.8ZM471.9,31.2c0-1.1-.7-2.1-1.9-2.1s-1.8,1-1.8,2.1.7,2.1,1.8,2.1,1.9-1,1.9-2.1Z"/>
      <path class="st4" d="M477.2,34.9l-2.9-7.2h2l1.9,5,1.9-5h2.1l-2.9,7.2h-2.1Z"/>
      <path class="st4" d="M486.3,27.4c2.2,0,3.6,1.6,3.6,4v.4h-5.4c.1.9.9,1.7,2.1,1.7s1.5-.3,1.9-.7l.8,1.2c-.7.7-1.9,1-3,1-2.2,0-3.9-1.5-3.9-3.8s1.5-3.8,3.8-3.8ZM484.5,30.5h3.6c0-.7-.5-1.6-1.8-1.6s-1.7.9-1.8,1.6Z"/>
      <path class="st4" d="M495.5,33.1v-3.8h-1.2v-1.7h1.2v-2h1.9v2h1.5v1.7h-1.5v3.3c0,.5.2.8.7.8s.6-.1.7-.2l.4,1.4c-.3.3-.8.5-1.6.5-1.3,0-2.1-.7-2.1-2Z"/>
      <path class="st4" d="M505.1,34.9v-4.4c0-1-.5-1.3-1.3-1.3s-1.3.4-1.7.9v4.9h-1.9v-10h1.9v3.7c.5-.6,1.4-1.1,2.5-1.1s2.4.9,2.4,2.3v5.1h-1.9Z"/>
      <path class="st4" d="M508.9,34.9v-7.2h1.9v1c.5-.6,1.4-1.2,2.3-1.2v1.9c-.1,0-.3,0-.5,0-.6,0-1.5.3-1.8.8v4.8h-1.9Z"/>
      <path class="st4" d="M513.9,31.2c0-2.1,1.4-3.8,3.8-3.8s3.8,1.7,3.8,3.8-1.4,3.8-3.8,3.8-3.8-1.7-3.8-3.8ZM519.6,31.2c0-1.1-.7-2.1-1.9-2.1s-1.8,1-1.8,2.1.7,2.1,1.8,2.1,1.9-1,1.9-2.1Z"/>
      <path class="st4" d="M527.8,34.9v-.9c-.5.6-1.4,1.1-2.5,1.1s-2.3-.9-2.3-2.3v-5.1h1.9v4.4c0,1,.5,1.3,1.3,1.3s1.3-.4,1.7-.8v-4.9h1.9v7.2h-1.9Z"/>
      <path class="st4" d="M532.3,35.3c.6.6,1.3.9,2.3.9s2-.4,2-1.8v-.7c-.6.7-1.4,1.1-2.2,1.1-1.8,0-3.2-1.3-3.2-3.7s1.4-3.7,3.2-3.7,1.7.4,2.2,1.1v-.9h1.9v6.7c0,2.8-2.1,3.4-3.9,3.4s-2.2-.3-3.1-1.1l.9-1.4ZM536.6,29.9c-.3-.5-1-.8-1.6-.8-1.1,0-1.8.8-1.8,2s.8,2,1.8,2,1.3-.4,1.6-.8v-2.3Z"/>
      <path class="st4" d="M545.3,34.9v-4.4c0-1-.5-1.3-1.3-1.3s-1.3.4-1.7.9v4.9h-1.9v-10h1.9v3.7c.5-.6,1.4-1.1,2.5-1.1s2.4.9,2.4,2.3v5.1h-1.9Z"/>
      <path class="st4" d="M457.3,45.4c1.5,0,2.4.6,2.9,1.3l-1.2,1.2c-.3-.5-.9-.8-1.5-.8-1.2,0-2,.8-2,2.1s.8,2.1,2,2.1,1.2-.3,1.5-.8l1.2,1.2c-.5.7-1.4,1.3-2.9,1.3-2.2,0-3.8-1.6-3.8-3.8s1.6-3.8,3.8-3.8Z"/>
      <path class="st4" d="M460.9,49.2c0-2.1,1.4-3.8,3.8-3.8s3.8,1.7,3.8,3.8-1.4,3.8-3.8,3.8-3.8-1.7-3.8-3.8ZM466.6,49.2c0-1.1-.7-2.1-1.9-2.1s-1.8,1-1.8,2.1.7,2.1,1.8,2.1,1.9-1,1.9-2.1Z"/>
      <path class="st4" d="M474.9,52.9v-.9c-.5.6-1.4,1.1-2.6,1.1s-2.3-.9-2.3-2.3v-5.1h1.9v4.4c0,1,.5,1.3,1.3,1.3s1.3-.4,1.7-.8v-4.9h1.9v7.2h-1.9Z"/>
      <path class="st4" d="M478.7,52.9v-7.2h1.9v1c.5-.6,1.4-1.2,2.3-1.2v1.9c-.1,0-.3,0-.5,0-.6,0-1.5.3-1.8.8v4.8h-1.9Z"/>
      <path class="st4" d="M484.3,50.6c.5.5,1.6,1,2.5,1s1.2-.3,1.2-.7-.6-.7-1.5-.9c-1.2-.2-2.8-.5-2.8-2.3s1.1-2.3,3-2.3,2.2.4,2.9,1l-.8,1.3c-.4-.5-1.3-.8-2.1-.8s-1.1.3-1.1.7.6.6,1.4.8c1.2.2,2.9.6,2.9,2.4s-1.1,2.3-3.1,2.3-2.5-.4-3.2-1.1l.8-1.3Z"/>
      <path class="st4" d="M494.5,45.4c2.2,0,3.6,1.6,3.6,4v.4h-5.4c.1.9.9,1.7,2.1,1.7s1.5-.3,1.9-.7l.8,1.2c-.7.7-1.9,1-3,1-2.2,0-3.9-1.5-3.9-3.8s1.5-3.8,3.7-3.8ZM492.7,48.5h3.6c0-.7-.5-1.6-1.8-1.6s-1.7.9-1.8,1.6Z"/>
      <path class="st4" d="M505.9,52.9l-1.5-4.9-1.5,4.9h-2l-2.2-7.2h2l1.4,4.9,1.6-4.9h1.7l1.6,4.9,1.3-4.9h2l-2.2,7.2h-2Z"/>
      <path class="st4" d="M510.6,49.2c0-2.1,1.4-3.8,3.8-3.8s3.8,1.7,3.8,3.8-1.4,3.8-3.8,3.8-3.8-1.7-3.8-3.8ZM516.3,49.2c0-1.1-.7-2.1-1.9-2.1s-1.8,1-1.8,2.1.7,2.1,1.8,2.1,1.9-1,1.9-2.1Z"/>
      <path class="st4" d="M519.7,52.9v-7.2h1.9v1c.5-.6,1.4-1.2,2.3-1.2v1.9c-.1,0-.3,0-.5,0-.6,0-1.5.3-1.8.8v4.8h-1.9Z"/>
      <path class="st4" d="M529.8,52.9l-1.9-2.8-.9.9v1.9h-1.9v-10h1.9v6l2.7-3.2h2.3l-2.9,3.3,3,4h-2.4Z"/>
      <path class="st4" d="M460.3,70.9l-1.5-4.9-1.5,4.9h-2l-2.2-7.2h2l1.4,4.9,1.6-4.9h1.7l1.6,4.9,1.4-4.9h2l-2.2,7.2h-2Z"/>
      <path class="st4" d="M465.2,61.4c0-.6.5-1.1,1.1-1.1s1.1.5,1.1,1.1-.5,1.1-1.1,1.1-1.1-.5-1.1-1.1ZM465.4,70.9v-7.2h1.9v7.2h-1.9Z"/>
      <path class="st4" d="M469.6,69.1v-3.8h-1.2v-1.7h1.2v-2h1.9v2h1.5v1.7h-1.5v3.3c0,.5.2.8.7.8s.6-.1.7-.2l.4,1.4c-.3.3-.8.5-1.6.5-1.3,0-2.1-.7-2.1-2Z"/>
      <path class="st4" d="M479.2,70.9v-4.4c0-1-.5-1.3-1.3-1.3s-1.3.4-1.6.9v4.9h-1.9v-10h1.9v3.7c.5-.6,1.4-1.1,2.5-1.1s2.4.9,2.4,2.3v5.1h-1.9Z"/>
      <path class="st4" d="M491.2,70.9v-.8c-.5.6-1.3.9-2.3.9s-2.5-.8-2.5-2.4,1.4-2.3,2.5-2.3,1.8.3,2.3.9v-1c0-.7-.6-1.2-1.6-1.2s-1.5.3-2.1.9l-.7-1.3c.9-.8,2-1.1,3.2-1.1,1.7,0,3.2.7,3.2,2.7v4.7h-1.9ZM491.2,68.2c-.3-.4-.9-.6-1.5-.6s-1.4.4-1.4,1.1.6,1.1,1.4,1.1,1.2-.2,1.5-.6v-.9Z"/>
      <path class="st4" d="M502.2,63.4c1.5,0,2.4.6,2.9,1.3l-1.2,1.2c-.3-.5-.9-.8-1.5-.8-1.2,0-2,.8-2,2.1s.8,2.1,2,2.1,1.2-.3,1.5-.8l1.2,1.2c-.5.7-1.4,1.3-2.9,1.3-2.2,0-3.8-1.6-3.8-3.8s1.6-3.8,3.8-3.8Z"/>
      <path class="st4" d="M505.8,67.2c0-2.1,1.4-3.8,3.8-3.8s3.8,1.7,3.8,3.8-1.4,3.8-3.8,3.8-3.8-1.7-3.8-3.8ZM511.5,67.2c0-1.1-.7-2.1-1.9-2.1s-1.8,1-1.8,2.1.7,2.1,1.8,2.1,1.9-1,1.9-2.1Z"/>
      <path class="st4" d="M519.8,70.9v-4.4c0-1-.5-1.3-1.3-1.3s-1.3.4-1.7.9v4.9h-1.9v-10h1.9v3.7c.5-.6,1.4-1.1,2.5-1.1s2.4.9,2.4,2.3v5.1h-1.9Z"/>
      <path class="st4" d="M523.2,67.2c0-2.1,1.4-3.8,3.8-3.8s3.8,1.7,3.8,3.8-1.4,3.8-3.8,3.8-3.8-1.7-3.8-3.8ZM528.8,67.2c0-1.1-.7-2.1-1.9-2.1s-1.8,1-1.8,2.1.7,2.1,1.8,2.1,1.9-1,1.9-2.1Z"/>
      <path class="st4" d="M532.2,70.9v-7.2h1.9v1c.5-.6,1.4-1.2,2.3-1.2v1.9c-.1,0-.3,0-.5,0-.6,0-1.5.3-1.8.8v4.8h-1.9Z"/>
      <path class="st4" d="M538,69.1v-3.8h-1.2v-1.7h1.2v-2h1.9v2h1.5v1.7h-1.5v3.3c0,.5.2.8.7.8s.6-.1.7-.2l.4,1.4c-.3.3-.8.5-1.6.5-1.3,0-2.1-.7-2.1-2Z"/>
      <path class="st4" d="M545.2,64.5c.5-.3.9-.6.9-1.1s-.3-.9-1.2-.9-1.4.4-1.8.9l-1.2-1.4c.8-.9,2-1.5,3.3-1.5,1.9,0,3.1,1,3.1,2.4s-.8,1.8-1.5,2.3c-.5.4-1,.7-1,1.3s.1.5.3.6l-1.6.5c-.3-.3-.5-.8-.5-1.3,0-1,.7-1.5,1.3-2ZM545.1,68.6c.7,0,1.2.6,1.2,1.2s-.6,1.2-1.2,1.2-1.2-.6-1.2-1.2.6-1.2,1.2-1.2Z"/>
    </g>
    <g>
      <path class="st4" d="M299.3,31.8c.7.7,1.8,1.3,3.2,1.3s1.7-.6,1.7-1.1-.9-1-2-1.3c-1.6-.4-3.7-.8-3.7-3.1s1.4-3,3.8-3,2.9.5,3.9,1.4l-1.2,1.6c-.8-.8-1.9-1.1-2.9-1.1s-1.5.4-1.5,1,.8.9,2,1.2c1.7.4,3.8.9,3.8,3.1s-1.3,3.2-4,3.2-3.3-.6-4.2-1.6l1.2-1.6Z"/>
      <path class="st4" d="M311,27.4c2.2,0,3.6,1.6,3.6,4v.4h-5.4c.1.9.9,1.7,2.1,1.7s1.5-.3,1.9-.7l.8,1.2c-.7.7-1.9,1-3,1-2.2,0-3.9-1.5-3.9-3.8s1.5-3.8,3.8-3.8ZM309.2,30.5h3.6c0-.7-.5-1.6-1.8-1.6s-1.7.9-1.8,1.6Z"/>
      <path class="st4" d="M316.4,33.1v-3.8h-1.2v-1.7h1.2v-2h1.9v2h1.5v1.7h-1.5v3.3c0,.5.2.8.7.8s.6-.1.7-.2l.4,1.4c-.3.3-.8.5-1.6.5-1.3,0-2.1-.7-2.1-2Z"/>
      <path class="st4" d="M325.3,33.1v-3.8h-1.2v-1.7h1.2v-2h1.9v2h1.5v1.7h-1.5v3.3c0,.5.2.8.7.8s.6-.1.7-.2l.4,1.4c-.3.3-.8.5-1.6.5-1.3,0-2.1-.7-2.1-2Z"/>
      <path class="st4" d="M329.8,25.4c0-.6.5-1.1,1.1-1.1s1.1.5,1.1,1.1-.5,1.1-1.1,1.1-1.1-.5-1.1-1.1ZM330,34.9v-7.2h1.9v7.2h-1.9Z"/>
      <path class="st4" d="M342.8,34.9v-4.6c0-.7-.3-1.2-1.1-1.2s-1.2.5-1.5.8v4.9h-1.9v-4.6c0-.7-.3-1.2-1.1-1.2s-1.2.5-1.5.9v4.9h-1.9v-7.2h1.9v.9c.3-.4,1.3-1.1,2.4-1.1s1.7.5,2,1.3c.4-.7,1.4-1.3,2.5-1.3s2.1.7,2.1,2.2v5.2h-1.9Z"/>
      <path class="st4" d="M349.9,27.4c2.2,0,3.6,1.6,3.6,4v.4h-5.4c.1.9.9,1.7,2.1,1.7s1.5-.3,1.9-.7l.8,1.2c-.7.7-1.9,1-3,1-2.2,0-3.9-1.5-3.9-3.8s1.5-3.8,3.8-3.8ZM348.1,30.5h3.6c0-.7-.5-1.6-1.8-1.6s-1.7.9-1.8,1.6Z"/>
      <path class="st4" d="M363.1,34.9v-.8c-.5.6-1.4.9-2.3.9s-2.5-.8-2.5-2.4,1.4-2.3,2.5-2.3,1.8.3,2.3.9v-1c0-.7-.6-1.2-1.6-1.2s-1.5.3-2.1.9l-.7-1.3c.9-.8,2-1.1,3.2-1.1,1.7,0,3.2.7,3.2,2.7v4.7h-1.9ZM363.1,32.2c-.3-.4-.9-.6-1.5-.6s-1.4.4-1.4,1.1.6,1.1,1.4,1.1,1.2-.2,1.5-.6v-.9Z"/>
      <path class="st4" d="M371.8,34.9v-4.4c0-1-.5-1.4-1.3-1.4s-1.3.4-1.6.9v4.9h-1.9v-7.2h1.9v.9c.5-.6,1.3-1.1,2.5-1.1s2.4.9,2.4,2.3v5.1h-1.9Z"/>
      <path class="st4" d="M380.5,34.9v-.9c-.6.7-1.4,1.1-2.2,1.1-1.8,0-3.2-1.4-3.2-3.8s1.4-3.8,3.2-3.8,1.7.4,2.2,1.1v-3.7h1.9v10h-1.9ZM380.5,29.9c-.3-.5-1-.8-1.7-.8-1.1,0-1.8.9-1.8,2.1s.8,2.1,1.8,2.1,1.3-.3,1.7-.8v-2.6Z"/>
      <path class="st4" d="M300.6,55.6h-1.9v-10h1.9v.9c.6-.7,1.3-1.1,2.2-1.1,1.9,0,3.2,1.4,3.2,3.8s-1.3,3.8-3.2,3.8-1.6-.4-2.2-1.1v3.7ZM302.3,47.1c-.6,0-1.3.4-1.6.8v2.6c.3.4,1,.8,1.6.8,1.1,0,1.8-.9,1.8-2.1s-.7-2.1-1.8-2.1Z"/>
      <path class="st4" d="M311.9,52.9v-.8c-.5.6-1.4.9-2.3.9s-2.5-.8-2.5-2.4,1.4-2.3,2.5-2.3,1.8.3,2.3.9v-1c0-.7-.6-1.2-1.6-1.2s-1.5.3-2.1.9l-.7-1.3c.9-.8,2-1.1,3.2-1.1,1.7,0,3.2.7,3.2,2.7v4.7h-1.9ZM311.9,50.2c-.3-.4-.9-.6-1.5-.6s-1.4.4-1.4,1.1.6,1.1,1.4,1.1,1.2-.2,1.5-.6v-.9Z"/>
      <path class="st4" d="M319,45.4c1.5,0,2.4.6,2.9,1.3l-1.2,1.2c-.3-.5-.9-.8-1.5-.8-1.2,0-2,.8-2,2.1s.8,2.1,2,2.1,1.2-.3,1.5-.8l1.2,1.2c-.5.7-1.4,1.3-2.9,1.3-2.2,0-3.8-1.6-3.8-3.8s1.6-3.8,3.8-3.8Z"/>
      <path class="st4" d="M326.4,45.4c2.2,0,3.6,1.6,3.6,4v.4h-5.4c.1.9.9,1.7,2.1,1.7s1.5-.3,1.9-.7l.8,1.2c-.7.7-1.9,1-3,1-2.2,0-3.9-1.5-3.9-3.8s1.5-3.8,3.8-3.8ZM324.6,48.5h3.6c0-.7-.5-1.6-1.8-1.6s-1.7.9-1.8,1.6Z"/>
      <path class="st4" d="M334.8,49.2c0-2.1,1.4-3.8,3.8-3.8s3.8,1.7,3.8,3.8-1.4,3.8-3.8,3.8-3.8-1.7-3.8-3.8ZM340.5,49.2c0-1.1-.7-2.1-1.9-2.1s-1.8,1-1.8,2.1.7,2.1,1.8,2.1,1.9-1,1.9-2.1Z"/>
      <path class="st4" d="M346.2,47.3v5.6h-1.9v-5.6h-1.2v-1.7h1.2v-.4c0-1.6,1-2.5,2.4-2.5s1,.1,1.4.3l-.4,1.3c-.2-.1-.4-.1-.6-.1-.5,0-.9.4-.9,1.1v.4h1.5v1.7h-1.5Z"/>
      <path class="st4" d="M352.6,52.9v-10h1.9v10h-1.9Z"/>
      <path class="st4" d="M359.7,45.4c2.2,0,3.6,1.6,3.6,4v.4h-5.4c.1.9.9,1.7,2.1,1.7s1.5-.3,1.9-.7l.8,1.2c-.7.7-1.9,1-3,1-2.2,0-3.9-1.5-3.9-3.8s1.5-3.8,3.8-3.8ZM357.9,48.5h3.6c0-.7-.5-1.6-1.8-1.6s-1.7.9-1.8,1.6Z"/>
      <path class="st4" d="M369.1,52.9v-.8c-.5.6-1.4.9-2.3.9s-2.5-.8-2.5-2.4,1.4-2.3,2.5-2.3,1.8.3,2.3.9v-1c0-.7-.6-1.2-1.6-1.2s-1.5.3-2.1.9l-.7-1.3c.9-.8,2-1.1,3.2-1.1,1.7,0,3.2.7,3.2,2.7v4.7h-1.9ZM369.1,50.2c-.3-.4-.9-.6-1.5-.6s-1.4.4-1.4,1.1.6,1.1,1.4,1.1,1.2-.2,1.5-.6v-.9Z"/>
      <path class="st4" d="M372.9,52.9v-7.2h1.9v1c.5-.6,1.4-1.2,2.3-1.2v1.9c-.1,0-.3,0-.5,0-.6,0-1.5.3-1.8.8v4.8h-1.9Z"/>
      <path class="st4" d="M383.2,52.9v-4.4c0-1-.5-1.4-1.3-1.4s-1.3.4-1.7.9v4.9h-1.9v-7.2h1.9v.9c.5-.6,1.3-1.1,2.5-1.1s2.4.9,2.4,2.3v5.1h-1.9Z"/>
      <path class="st4" d="M386.8,43.4c0-.6.5-1.1,1.1-1.1s1.1.5,1.1,1.1-.5,1.1-1.1,1.1-1.1-.5-1.1-1.1ZM387,52.9v-7.2h1.9v7.2h-1.9Z"/>
      <path class="st4" d="M395.6,52.9v-4.4c0-1-.5-1.4-1.3-1.4s-1.3.4-1.6.9v4.9h-1.9v-7.2h1.9v.9c.5-.6,1.3-1.1,2.5-1.1s2.4.9,2.4,2.3v5.1h-1.9Z"/>
      <path class="st4" d="M400.1,53.3c.6.6,1.4.9,2.3.9s2-.4,2-1.8v-.7c-.6.7-1.3,1.1-2.2,1.1-1.8,0-3.2-1.3-3.2-3.7s1.4-3.7,3.2-3.7,1.6.4,2.2,1.1v-.9h1.9v6.7c0,2.8-2.1,3.4-3.9,3.4s-2.2-.3-3.1-1.1l.9-1.4ZM404.4,47.9c-.3-.5-1-.8-1.6-.8-1.1,0-1.8.8-1.8,2s.8,2,1.8,2,1.3-.4,1.6-.8v-2.3Z"/>
      <path class="st4" d="M410.4,46.5c.5-.3.9-.6.9-1.1s-.3-.9-1.2-.9-1.4.4-1.8.9l-1.2-1.4c.8-.9,2-1.5,3.3-1.5,1.9,0,3.1,1,3.1,2.4s-.8,1.8-1.5,2.3c-.5.4-1,.7-1,1.3s.1.5.3.6l-1.6.5c-.3-.3-.5-.8-.5-1.3,0-1,.7-1.5,1.3-2ZM410.3,50.6c.7,0,1.2.6,1.2,1.2s-.6,1.2-1.2,1.2-1.2-.6-1.2-1.2.6-1.2,1.2-1.2Z"/>
    </g>
    <g>
      <path class="st4" d="M171.1,179.8c.5.6,1.4,1.1,2.5,1.1s1.9-.8,1.9-1.4c0-1-1-1.2-2-1.5-1.3-.3-2.7-.7-2.7-2.3s1.2-2.2,2.7-2.2,2.2.4,2.8,1.1l-.6.7c-.6-.7-1.4-1-2.3-1s-1.6.5-1.6,1.3.9,1,1.9,1.3c1.3.3,2.8.8,2.8,2.4s-.8,2.4-3,2.4-2.4-.5-3.1-1.3l.6-.8Z"/>
      <path class="st4" d="M180.2,181.7v-3.4l-3.2-4.6h1.2l2.5,3.7,2.5-3.7h1.2l-3.1,4.6v3.4h-1Z"/>
      <path class="st4" d="M191,181.7l-4.7-6.5v6.5h-1v-8h1l4.6,6.3v-6.3h1v8h-1Z"/>
      <path class="st4" d="M193.6,177.7c0-2.5,1.8-4.1,4.1-4.1s2.4.7,3.1,1.6l-.8.5c-.5-.7-1.3-1.2-2.2-1.2-1.7,0-3,1.3-3,3.3s1.3,3.2,3,3.2,1.8-.5,2.2-1.2l.9.5c-.7.9-1.6,1.6-3.1,1.6-2.3,0-4.1-1.7-4.1-4.1Z"/>
      <path class="st4" d="M207.7,181.7v-3.7h-4.7v3.7h-1v-8h1v3.4h4.7v-3.4h1v8h-1Z"/>
      <path class="st4" d="M215.2,181.7l-2-3.2h-1.6v3.2h-1v-8h3.2c1.5,0,2.5.9,2.5,2.4s-1,2.2-2.1,2.3l2.2,3.3h-1.2ZM213.6,174.6h-2.1v3.1h2.1c.9,0,1.6-.6,1.6-1.5s-.6-1.5-1.6-1.5Z"/>
      <path class="st4" d="M221.5,173.6c2.4,0,4,1.8,4,4.1s-1.6,4.1-4,4.1-4-1.8-4-4.1,1.6-4.1,4-4.1ZM221.5,174.4c-1.8,0-2.9,1.4-2.9,3.3s1.1,3.2,2.9,3.2,2.9-1.4,2.9-3.2-1.2-3.3-2.9-3.3Z"/>
      <path class="st4" d="M232.7,181.7l-4.7-6.5v6.5h-1v-8h1l4.6,6.3v-6.3h1v8h-1Z"/>
      <path class="st4" d="M239.2,173.6c2.4,0,4,1.8,4,4.1s-1.6,4.1-4,4.1-4-1.8-4-4.1,1.6-4.1,4-4.1ZM239.2,174.4c-1.8,0-2.9,1.4-2.9,3.3s1.1,3.2,2.9,3.2,2.9-1.4,2.9-3.2-1.2-3.3-2.9-3.3Z"/>
      <path class="st4" d="M244.7,173.7h1v4.9c0,1.5.8,2.4,2.3,2.4s2.3-.9,2.3-2.4v-4.9h1v4.9c0,2-1.1,3.3-3.3,3.3s-3.3-1.3-3.3-3.3v-4.9Z"/>
      <path class="st4" d="M253.2,179.8c.5.6,1.4,1.1,2.5,1.1s1.9-.8,1.9-1.4c0-1-1-1.2-2-1.5-1.3-.3-2.7-.7-2.7-2.3s1.2-2.2,2.7-2.2,2.2.4,2.8,1.1l-.6.7c-.6-.7-1.4-1-2.3-1s-1.6.5-1.6,1.3.9,1,1.9,1.3c1.3.3,2.8.8,2.8,2.4s-.8,2.4-3,2.4-2.4-.5-3.1-1.3l.6-.8Z"/>
    </g>
    <g>
      <path class="st4" d="M181,335.3l-.7-1.8h-4.1l-.7,1.8h-1.1l3.2-8h1.2l3.2,8h-1.1ZM178.3,328.2l-1.7,4.5h3.5l-1.7-4.5Z"/>
      <path class="st4" d="M183.1,333.4c.5.6,1.4,1.1,2.5,1.1s1.9-.8,1.9-1.4c0-1-1-1.2-2-1.5-1.3-.3-2.7-.7-2.7-2.3s1.2-2.2,2.7-2.2,2.2.4,2.8,1.1l-.6.7c-.6-.7-1.4-1-2.3-1s-1.6.5-1.6,1.3.9,1,1.9,1.3c1.3.3,2.8.8,2.8,2.4s-.8,2.4-3,2.4-2.4-.5-3.1-1.3l.6-.8Z"/>
      <path class="st4" d="M192.2,335.3v-3.4l-3.2-4.6h1.2l2.5,3.7,2.5-3.7h1.2l-3.1,4.6v3.4h-1Z"/>
      <path class="st4" d="M203.1,335.3l-4.7-6.5v6.5h-1v-8h1l4.6,6.3v-6.3h1v8h-1Z"/>
      <path class="st4" d="M205.6,331.3c0-2.5,1.8-4.1,4.1-4.1s2.4.7,3.1,1.6l-.8.5c-.5-.7-1.3-1.2-2.2-1.2-1.7,0-3,1.3-3,3.3s1.3,3.2,3,3.2,1.8-.5,2.2-1.2l.9.5c-.7.9-1.6,1.6-3.1,1.6-2.3,0-4.1-1.7-4.1-4.1Z"/>
      <path class="st4" d="M219.7,335.3v-3.7h-4.7v3.7h-1v-8h1v3.4h4.7v-3.4h1v8h-1Z"/>
      <path class="st4" d="M227.2,335.3l-2-3.2h-1.6v3.2h-1v-8h3.2c1.5,0,2.5.9,2.5,2.4s-1,2.2-2.1,2.3l2.2,3.3h-1.2ZM225.7,328.2h-2.1v3.1h2.1c.9,0,1.6-.6,1.6-1.5s-.6-1.5-1.6-1.5Z"/>
      <path class="st4" d="M233.5,327.2c2.4,0,4,1.8,4,4.1s-1.6,4.1-4,4.1-4-1.8-4-4.1,1.6-4.1,4-4.1ZM233.5,328.1c-1.8,0-2.9,1.4-2.9,3.3s1.1,3.2,2.9,3.2,2.9-1.4,2.9-3.2-1.2-3.3-2.9-3.3Z"/>
      <path class="st4" d="M244.7,335.3l-4.7-6.5v6.5h-1v-8h1l4.6,6.3v-6.3h1v8h-1Z"/>
      <path class="st4" d="M251.2,327.2c2.4,0,4,1.8,4,4.1s-1.6,4.1-4,4.1-4-1.8-4-4.1,1.6-4.1,4-4.1ZM251.2,328.1c-1.8,0-2.9,1.4-2.9,3.3s1.1,3.2,2.9,3.2,2.9-1.4,2.9-3.2-1.2-3.3-2.9-3.3Z"/>
      <path class="st4" d="M256.7,327.3h1v4.9c0,1.5.8,2.4,2.3,2.4s2.3-.9,2.3-2.4v-4.9h1v4.9c0,2-1.1,3.3-3.3,3.3s-3.3-1.3-3.3-3.3v-4.9Z"/>
      <path class="st4" d="M265.2,333.4c.5.6,1.4,1.1,2.5,1.1s1.9-.8,1.9-1.4c0-1-1-1.2-2-1.5-1.3-.3-2.7-.7-2.7-2.3s1.2-2.2,2.7-2.2,2.2.4,2.8,1.1l-.6.7c-.6-.7-1.4-1-2.3-1s-1.6.5-1.6,1.3.9,1,1.9,1.3c1.3.3,2.8.8,2.8,2.4s-.8,2.4-3,2.4-2.4-.5-3.1-1.3l.6-.8Z"/>
    </g>
    <g>
      <path class="st4" d="M607.9,152.4c0-.4.3-.7.6-.7s.7.3.7.7-.3.7-.7.7-.6-.3-.6-.7ZM610.7,152.4c0-.4.3-.7.6-.7s.7.3.7.7-.3.7-.7.7-.6-.3-.6-.7ZM613.4,152.4c0-.4.3-.7.7-.7s.7.3.7.7-.3.7-.7.7-.7-.3-.7-.7Z"/>
      <path class="st4" d="M624.5,153l-1.5-4.7-1.5,4.7h-.9l-1.8-5.8h.9l1.4,4.6,1.5-4.6h.8l1.5,4.6,1.4-4.6h.9l-1.8,5.8h-.9Z"/>
      <path class="st4" d="M632.2,153v-3.8c0-1-.5-1.3-1.3-1.3s-1.4.4-1.7.9v4.2h-.9v-8h.9v3c.4-.5,1.2-1,2.1-1s1.8.6,1.8,1.8v4.1h-.9Z"/>
      <path class="st4" d="M634.6,150.1c0-1.7,1.1-3,2.9-3s2.9,1.4,2.9,3-1.1,3-2.9,3-2.9-1.4-2.9-3ZM639.3,150.1c0-1.2-.7-2.2-1.9-2.2s-1.9,1.1-1.9,2.2.7,2.2,1.9,2.2,1.9-1.1,1.9-2.2Z"/>
      <path class="st4" d="M644.8,151.6c.4.4,1.1.8,1.9.8s1.4-.4,1.4-1-.7-.8-1.5-1c-1-.2-2.1-.5-2.1-1.7s.8-1.7,2.2-1.7,1.7.4,2.1.8l-.4.6c-.3-.4-1-.7-1.7-.7s-1.3.4-1.3.9.7.7,1.4.9c1,.2,2.2.5,2.2,1.8s-.8,1.8-2.3,1.8-1.8-.3-2.3-.9l.5-.6Z"/>
      <path class="st4" d="M653,147.1c1.8,0,2.8,1.4,2.8,3.1v.2h-4.7c0,1.1.8,2,2.1,2s1.3-.3,1.8-.7l.4.6c-.6.6-1.4.9-2.3.9-1.7,0-3-1.2-3-3s1.2-3,2.9-3ZM651,149.7h3.8c0-.9-.6-1.9-1.9-1.9s-1.8,1-1.9,1.9Z"/>
      <path class="st4" d="M659.7,147.1c1.8,0,2.8,1.4,2.8,3.1v.2h-4.7c0,1.1.8,2,2.1,2s1.3-.3,1.8-.7l.4.6c-.6.6-1.4.9-2.3.9-1.7,0-3-1.2-3-3s1.2-3,2.9-3ZM657.8,149.7h3.8c0-.9-.6-1.9-1.9-1.9s-1.8,1-1.9,1.9Z"/>
      <path class="st4" d="M667.9,153l-2.1-2.6-1,.9v1.7h-.9v-8h.9v5.3l3-3.1h1.1l-2.6,2.6,2.6,3.2h-1.2Z"/>
      <path class="st4" d="M608,166c.4.4,1.1.8,1.9.8s1.4-.4,1.4-1-.7-.8-1.5-1c-1-.2-2.1-.5-2.1-1.7s.8-1.7,2.2-1.7,1.7.4,2.1.8l-.4.6c-.3-.4-1-.7-1.7-.7s-1.3.4-1.3.9.7.7,1.4.9c1,.2,2.2.5,2.2,1.8s-.8,1.8-2.3,1.8-1.8-.3-2.3-.9l.5-.6Z"/>
      <path class="st4" d="M613.3,164.5c0-1.7,1.1-3,2.9-3s2.9,1.4,2.9,3-1.1,3-2.9,3-2.9-1.4-2.9-3ZM618.1,164.5c0-1.2-.7-2.2-1.9-2.2s-1.9,1.1-1.9,2.2.7,2.2,1.9,2.2,1.9-1.1,1.9-2.2Z"/>
      <path class="st4" d="M623.1,161.5c1.1,0,1.7.4,2.1,1l-.6.6c-.4-.5-.9-.8-1.5-.8-1.2,0-2,.9-2,2.2s.8,2.2,2,2.2,1.1-.2,1.5-.8l.6.6c-.4.6-1.1,1-2.1,1-1.7,0-2.9-1.3-2.9-3s1.2-3,2.9-3Z"/>
      <path class="st4" d="M626.3,160c0-.3.3-.6.6-.6s.6.3.6.6-.3.6-.6.6-.6-.3-.6-.6ZM626.5,167.4v-5.8h.9v5.8h-.9Z"/>
      <path class="st4" d="M632.8,167.4v-.7c-.5.5-1.1.8-1.9.8s-2-.7-2-1.9,1-1.9,2-1.9,1.5.3,1.9.8v-1c0-.8-.6-1.2-1.5-1.2s-1.3.3-1.8.8l-.4-.6c.6-.6,1.4-1,2.3-1s2.2.6,2.2,2v4h-.9ZM632.8,165.1c-.3-.5-1-.7-1.6-.7s-1.4.5-1.4,1.3.6,1.3,1.4,1.3,1.2-.2,1.6-.7v-1.1Z"/>
      <path class="st4" d="M635.5,167.4v-8h.9v8h-.9Z"/>
      <path class="st4" d="M641.3,166c.4.4,1.1.8,1.9.8s1.4-.4,1.4-1-.7-.8-1.5-1c-1-.2-2.1-.5-2.1-1.7s.8-1.7,2.2-1.7,1.7.4,2.1.8l-.4.6c-.3-.4-1-.7-1.7-.7s-1.3.4-1.3.9.7.7,1.4.9c1,.2,2.2.5,2.2,1.8s-.8,1.8-2.3,1.8-1.8-.3-2.3-.9l.5-.6Z"/>
      <path class="st4" d="M650.8,167.4v-.8c-.4.5-1.2,1-2.1,1s-1.8-.6-1.8-1.8v-4.1h.9v3.8c0,1,.5,1.3,1.3,1.3s1.4-.4,1.7-.9v-4.3h.9v5.8h-.9Z"/>
      <path class="st4" d="M654.4,169.6h-.9v-8h.9v.9c.4-.6,1.1-1,2-1,1.5,0,2.6,1.2,2.6,3s-1.1,3-2.6,3-1.5-.4-2-1v3.1ZM656.1,162.3c-.7,0-1.4.4-1.7.9v2.6c.3.5,1,.9,1.7.9,1.2,0,1.9-1,1.9-2.2s-.7-2.2-1.9-2.2Z"/>
      <path class="st4" d="M661.3,169.6h-.9v-8h.9v.9c.4-.6,1.1-1,2-1,1.5,0,2.6,1.2,2.6,3s-1.1,3-2.6,3-1.5-.4-2-1v3.1ZM663,162.3c-.7,0-1.4.4-1.7.9v2.6c.3.5,1,.9,1.7.9,1.2,0,1.9-1,1.9-2.2s-.7-2.2-1.9-2.2Z"/>
      <path class="st4" d="M666.9,164.5c0-1.7,1.1-3,2.9-3s2.9,1.4,2.9,3-1.1,3-2.9,3-2.9-1.4-2.9-3ZM671.7,164.5c0-1.2-.7-2.2-1.9-2.2s-1.9,1.1-1.9,2.2.7,2.2,1.9,2.2,1.9-1.1,1.9-2.2Z"/>
      <path class="st4" d="M674.1,167.4v-5.8h.9v.9c.5-.6,1.1-1.1,1.9-1.1v.9c-.1,0-.2,0-.4,0-.6,0-1.3.5-1.6.9v4.1h-.9Z"/>
      <path class="st4" d="M678.3,166.2v-3.8h-1v-.8h1v-1.6h.9v1.6h1.2v.8h-1.2v3.6c0,.4.2.7.6.7s.5-.1.6-.2l.3.7c-.2.2-.6.4-1.1.4-.9,0-1.3-.5-1.3-1.4Z"/>
      <path class="st4" d="M681.4,168.5c.4-.3.7-.7.8-1.1,0,0-.1,0-.2,0-.3,0-.6-.3-.6-.6s.3-.6.6-.6.8.3.8.9-.4,1.4-1,1.8l-.4-.4Z"/>
      <path class="st4" d="M612,181.8v-3.8c0-1-.5-1.3-1.3-1.3s-1.4.4-1.7.9v4.2h-.9v-5.8h.9v.8c.4-.5,1.2-1,2.1-1s1.8.6,1.8,1.9v4.1h-.9Z"/>
      <path class="st4" d="M617.2,175.8c1.8,0,2.8,1.4,2.8,3.1v.2h-4.7c0,1.1.8,2,2.1,2s1.3-.3,1.8-.7l.4.6c-.6.6-1.4.9-2.3.9-1.7,0-3-1.2-3-3s1.2-3,2.9-3ZM615.3,178.5h3.8c0-.9-.6-1.9-1.9-1.9s-1.8,1-1.9,1.9Z"/>
      <path class="st4" d="M621.6,180.6v-3.8h-1v-.8h1v-1.6h.9v1.6h1.2v.8h-1.2v3.6c0,.4.2.7.6.7s.5-.1.6-.2l.3.7c-.2.2-.6.4-1.1.4-.9,0-1.3-.5-1.3-1.4Z"/>
      <path class="st4" d="M630,181.8l-1.5-4.7-1.5,4.7h-.9l-1.8-5.8h.9l1.4,4.6,1.5-4.6h.8l1.5,4.6,1.4-4.6h.9l-1.8,5.8h-.9Z"/>
      <path class="st4" d="M633.5,178.9c0-1.7,1.1-3,2.9-3s2.9,1.4,2.9,3-1.1,3-2.9,3-2.9-1.4-2.9-3ZM638.2,178.9c0-1.2-.7-2.2-1.9-2.2s-1.9,1.1-1.9,2.2.7,2.2,1.9,2.2,1.9-1.1,1.9-2.2Z"/>
      <path class="st4" d="M640.7,181.8v-5.8h.9v.9c.5-.6,1.1-1.1,1.9-1.1v.9c-.1,0-.2,0-.4,0-.6,0-1.3.5-1.6.9v4.1h-.9Z"/>
      <path class="st4" d="M648.6,181.8l-2.1-2.6-1,.9v1.7h-.9v-8h.9v5.3l3-3.1h1.1l-2.6,2.6,2.6,3.2h-1.2Z"/>
      <path class="st4" d="M650.6,174.4c0-.3.3-.6.6-.6s.6.3.6.6-.3.6-.6.6-.6-.3-.6-.6ZM650.8,181.8v-5.8h.9v5.8h-.9Z"/>
      <path class="st4" d="M657.4,181.8v-3.8c0-1-.5-1.3-1.3-1.3s-1.4.4-1.7.9v4.2h-.9v-5.8h.9v.8c.4-.5,1.2-1,2.1-1s1.8.6,1.8,1.9v4.1h-.9Z"/>
      <path class="st4" d="M660.5,182.6c.5.6,1.1.8,1.9.8s1.9-.5,1.9-1.7v-.8c-.4.6-1.1,1-1.9,1-1.5,0-2.6-1.1-2.6-3s1.1-3,2.6-3,1.5.4,1.9,1v-.9h.9v5.6c0,1.9-1.3,2.5-2.8,2.5s-1.7-.2-2.3-.9l.5-.7ZM664.3,177.6c-.3-.5-1-.9-1.7-.9-1.2,0-1.9.9-1.9,2.2s.7,2.2,1.9,2.2,1.4-.4,1.7-.9v-2.5Z"/>
      <path class="st4" d="M611.7,196.2v-.7c-.5.5-1.1.8-1.9.8s-2-.7-2-1.9,1-1.9,2-1.9,1.5.3,1.9.8v-1c0-.8-.6-1.2-1.5-1.2s-1.3.3-1.8.8l-.4-.6c.6-.6,1.4-1,2.3-1s2.2.6,2.2,2v4h-.9ZM611.7,193.9c-.3-.5-1-.7-1.6-.7s-1.4.5-1.4,1.3.6,1.3,1.4,1.3,1.2-.2,1.6-.7v-1.1Z"/>
      <path class="st4" d="M618.3,196.2v-3.8c0-1-.5-1.3-1.3-1.3s-1.4.4-1.7.9v4.2h-.9v-5.8h.9v.8c.4-.5,1.2-1,2.1-1s1.8.6,1.8,1.9v4.1h-.9Z"/>
      <path class="st4" d="M625.2,196.2v-.9c-.4.6-1.1,1-2,1-1.5,0-2.6-1.2-2.6-3s1.1-3,2.6-3,1.5.4,2,1v-3.1h.9v8h-.9ZM625.2,192c-.3-.5-1-.9-1.7-.9-1.2,0-1.9,1-1.9,2.2s.7,2.2,1.9,2.2,1.4-.4,1.7-.9v-2.6Z"/>
      <path class="st4" d="M610.6,204.7c1.1,0,1.7.4,2.1,1l-.6.6c-.4-.5-.9-.8-1.5-.8-1.2,0-2,.9-2,2.2s.8,2.2,2,2.2,1.1-.2,1.5-.8l.6.6c-.4.6-1.1,1-2.1,1-1.7,0-2.9-1.3-2.9-3s1.2-3,2.9-3Z"/>
      <path class="st4" d="M613.7,207.7c0-1.7,1.1-3,2.9-3s2.9,1.4,2.9,3-1.1,3-2.9,3-2.9-1.4-2.9-3ZM618.5,207.7c0-1.2-.7-2.2-1.9-2.2s-1.9,1.1-1.9,2.2.7,2.2,1.9,2.2,1.9-1.1,1.9-2.2Z"/>
      <path class="st4" d="M620.9,210.6v-8h.9v8h-.9Z"/>
      <path class="st4" d="M623.6,210.6v-8h.9v8h-.9Z"/>
      <path class="st4" d="M629.9,210.6v-.7c-.5.5-1.1.8-1.9.8s-2-.7-2-1.9,1-1.9,2-1.9,1.5.3,1.9.8v-1c0-.8-.6-1.2-1.5-1.2s-1.3.3-1.8.8l-.4-.6c.6-.6,1.4-1,2.3-1s2.2.6,2.2,2v4h-.9ZM629.9,208.3c-.3-.5-1-.7-1.6-.7s-1.4.5-1.4,1.3.6,1.3,1.4,1.3,1.2-.2,1.6-.7v-1.1Z"/>
      <path class="st4" d="M632.6,210.6v-8h.9v3.1c.5-.6,1.2-1,2-1,1.5,0,2.6,1.2,2.6,3s-1.1,3-2.6,3-1.5-.4-2-1v.9h-.9ZM633.5,209c.3.5,1,.9,1.7.9,1.2,0,1.9-.9,1.9-2.2s-.7-2.2-1.9-2.2-1.4.4-1.7.9v2.6Z"/>
      <path class="st4" d="M639.2,207.7c0-1.7,1.1-3,2.9-3s2.9,1.4,2.9,3-1.1,3-2.9,3-2.9-1.4-2.9-3ZM644,207.7c0-1.2-.7-2.2-1.9-2.2s-1.9,1.1-1.9,2.2.7,2.2,1.9,2.2,1.9-1.1,1.9-2.2Z"/>
      <path class="st4" d="M646.4,210.6v-5.8h.9v.9c.5-.6,1.1-1.1,1.9-1.1v.9c-.1,0-.2,0-.4,0-.6,0-1.3.5-1.6.9v4.1h-.9Z"/>
      <path class="st4" d="M654,210.6v-.7c-.5.5-1.1.8-1.9.8s-2-.7-2-1.9,1-1.9,2-1.9,1.5.3,1.9.8v-1c0-.8-.6-1.2-1.5-1.2s-1.3.3-1.8.8l-.4-.6c.6-.6,1.4-1,2.3-1s2.2.6,2.2,2v4h-.9ZM654,208.3c-.3-.5-1-.7-1.6-.7s-1.4.5-1.4,1.3.6,1.3,1.4,1.3,1.2-.2,1.6-.7v-1.1Z"/>
      <path class="st4" d="M656.8,209.4v-3.8h-1v-.8h1v-1.6h.9v1.6h1.2v.8h-1.2v3.6c0,.4.2.7.6.7s.5-.1.6-.2l.3.7c-.2.2-.6.4-1.1.4-.9,0-1.3-.5-1.3-1.4Z"/>
      <path class="st4" d="M660,203.2c0-.3.3-.6.6-.6s.6.3.6.6-.3.6-.6.6-.6-.3-.6-.6ZM660.2,210.6v-5.8h.9v5.8h-.9Z"/>
      <path class="st4" d="M662.6,207.7c0-1.7,1.1-3,2.9-3s2.9,1.4,2.9,3-1.1,3-2.9,3-2.9-1.4-2.9-3ZM667.3,207.7c0-1.2-.7-2.2-1.9-2.2s-1.9,1.1-1.9,2.2.7,2.2,1.9,2.2,1.9-1.1,1.9-2.2Z"/>
      <path class="st4" d="M673.7,210.6v-3.8c0-1-.5-1.3-1.3-1.3s-1.4.4-1.7.9v4.2h-.9v-5.8h.9v.8c.4-.5,1.2-1,2.1-1s1.8.6,1.8,1.9v4.1h-.9Z"/>
    </g>
    <g>
      <path class="st4" d="M604.9,307c0-.4.3-.7.6-.7s.7.3.7.7-.3.7-.7.7-.6-.3-.6-.7ZM607.6,307c0-.4.3-.7.6-.7s.7.3.7.7-.3.7-.7.7-.6-.3-.6-.7ZM610.4,307c0-.4.3-.7.7-.7s.7.3.7.7-.3.7-.7.7-.7-.3-.7-.7Z"/>
      <path class="st4" d="M617.8,307.5l-1.5-4.7-1.5,4.7h-.9l-1.8-5.8h.9l1.4,4.6,1.5-4.6h.8l1.5,4.6,1.4-4.6h.9l-1.8,5.8h-.9Z"/>
      <path class="st4" d="M621.4,300.1c0-.3.3-.6.6-.6s.6.3.6.6-.3.6-.6.6-.6-.3-.6-.6ZM621.6,307.5v-5.8h.9v5.8h-.9Z"/>
      <path class="st4" d="M624.5,306.3v-3.8h-1v-.8h1v-1.6h.9v1.6h1.2v.8h-1.2v3.6c0,.4.2.7.6.7s.5-.1.6-.2l.3.7c-.2.2-.6.4-1.1.4-.9,0-1.3-.5-1.3-1.4Z"/>
      <path class="st4" d="M631.8,307.5v-3.8c0-1-.5-1.3-1.3-1.3s-1.4.4-1.7.9v4.2h-.9v-8h.9v3c.4-.5,1.2-1,2.1-1s1.8.6,1.8,1.8v4.1h-.9Z"/>
      <path class="st4" d="M637.2,304.6c0-1.7,1.1-3,2.9-3s2.9,1.4,2.9,3-1.1,3-2.9,3-2.9-1.4-2.9-3ZM642,304.6c0-1.2-.7-2.2-1.9-2.2s-1.9,1.1-1.9,2.2.7,2.2,1.9,2.2,1.9-1.1,1.9-2.2Z"/>
      <path class="st4" d="M644.6,306.3v-3.8h-1v-.8h1v-1.6h.9v1.6h1.2v.8h-1.2v3.6c0,.4.2.7.6.7s.5-.1.6-.2l.3.7c-.2.2-.6.4-1.1.4-.9,0-1.3-.5-1.3-1.4Z"/>
      <path class="st4" d="M651.9,307.5v-3.8c0-1-.5-1.3-1.3-1.3s-1.4.4-1.7.9v4.2h-.9v-8h.9v3c.4-.5,1.2-1,2.1-1s1.8.6,1.8,1.8v4.1h-.9Z"/>
      <path class="st4" d="M657.1,301.6c1.8,0,2.8,1.4,2.8,3.1v.2h-4.7c0,1.1.8,2,2.1,2s1.3-.3,1.8-.7l.4.6c-.6.6-1.4.9-2.3.9-1.7,0-3-1.2-3-3s1.2-3,2.9-3ZM655.2,304.2h3.8c0-.9-.6-1.9-1.9-1.9s-1.8,1-1.9,1.9Z"/>
      <path class="st4" d="M661.3,307.5v-5.8h.9v.9c.5-.6,1.1-1.1,1.9-1.1v.9c-.1,0-.2,0-.4,0-.6,0-1.3.5-1.6.9v4.1h-.9Z"/>
      <path class="st4" d="M605,321.9v-5.8h.9v.9c.5-.6,1.1-1.1,1.9-1.1v.9c-.1,0-.2,0-.4,0-.6,0-1.3.5-1.6.9v4.1h-.9Z"/>
      <path class="st4" d="M611.5,316c1.8,0,2.8,1.4,2.8,3.1v.2h-4.7c0,1.1.8,2,2.1,2s1.3-.3,1.8-.7l.4.6c-.6.6-1.4.9-2.3.9-1.7,0-3-1.2-3-3s1.2-3,2.9-3ZM609.6,318.6h3.8c0-.9-.6-1.9-1.9-1.9s-1.8,1-1.9,1.9Z"/>
      <path class="st4" d="M615.7,320.5c.4.4,1.1.8,1.9.8s1.4-.4,1.4-1-.7-.8-1.5-1c-1-.2-2.1-.5-2.1-1.7s.8-1.7,2.2-1.7,1.7.4,2.1.8l-.4.6c-.3-.4-1-.7-1.7-.7s-1.3.4-1.3.9.7.7,1.4.9c1,.2,2.2.5,2.2,1.8s-.8,1.8-2.3,1.8-1.8-.3-2.3-.9l.5-.6Z"/>
      <path class="st4" d="M622.2,324.1h-.9v-8h.9v.9c.4-.6,1.1-1,2-1,1.5,0,2.6,1.2,2.6,3s-1.1,3-2.6,3-1.5-.4-2-1v3.1ZM624,316.8c-.7,0-1.4.4-1.7.9v2.6c.3.5,1,.9,1.7.9,1.2,0,1.9-1,1.9-2.2s-.7-2.2-1.9-2.2Z"/>
      <path class="st4" d="M627.9,319c0-1.7,1.1-3,2.9-3s2.9,1.4,2.9,3-1.1,3-2.9,3-2.9-1.4-2.9-3ZM632.7,319c0-1.2-.7-2.2-1.9-2.2s-1.9,1.1-1.9,2.2.7,2.2,1.9,2.2,1.9-1.1,1.9-2.2Z"/>
      <path class="st4" d="M639,321.9v-3.8c0-1-.5-1.3-1.3-1.3s-1.4.4-1.7.9v4.2h-.9v-5.8h.9v.8c.4-.5,1.2-1,2.1-1s1.8.6,1.8,1.9v4.1h-.9Z"/>
      <path class="st4" d="M641.7,320.5c.4.4,1.1.8,1.9.8s1.4-.4,1.4-1-.7-.8-1.5-1c-1-.2-2.1-.5-2.1-1.7s.8-1.7,2.2-1.7,1.7.4,2.1.8l-.4.6c-.3-.4-1-.7-1.7-.7s-1.3.4-1.3.9.7.7,1.4.9c1,.2,2.2.5,2.2,1.8s-.8,1.8-2.3,1.8-1.8-.3-2.3-.9l.5-.6Z"/>
      <path class="st4" d="M647.1,314.5c0-.3.3-.6.6-.6s.6.3.6.6-.3.6-.6.6-.6-.3-.6-.6ZM647.3,321.9v-5.8h.9v5.8h-.9Z"/>
      <path class="st4" d="M650,321.9v-8h.9v3.1c.5-.6,1.2-1,2-1,1.5,0,2.6,1.2,2.6,3s-1.1,3-2.6,3-1.5-.4-2-1v.9h-.9ZM650.9,320.3c.3.5,1,.9,1.7.9,1.2,0,1.9-.9,1.9-2.2s-.7-2.2-1.9-2.2-1.4.4-1.7.9v2.6Z"/>
      <path class="st4" d="M656.7,314.5c0-.3.3-.6.6-.6s.6.3.6.6-.3.6-.6.6-.6-.3-.6-.6ZM656.9,321.9v-5.8h.9v5.8h-.9Z"/>
      <path class="st4" d="M659.6,321.9v-8h.9v8h-.9Z"/>
      <path class="st4" d="M662.1,314.5c0-.3.3-.6.6-.6s.6.3.6.6-.3.6-.6.6-.6-.3-.6-.6ZM662.3,321.9v-5.8h.9v5.8h-.9Z"/>
      <path class="st4" d="M665.2,320.7v-3.8h-1v-.8h1v-1.6h.9v1.6h1.2v.8h-1.2v3.6c0,.4.2.7.6.7s.5-.1.6-.2l.3.7c-.2.2-.6.4-1.1.4-.9,0-1.3-.5-1.3-1.4Z"/>
      <path class="st4" d="M668.4,314.5c0-.3.3-.6.6-.6s.6.3.6.6-.3.6-.6.6-.6-.3-.6-.6ZM668.5,321.9v-5.8h.9v5.8h-.9Z"/>
      <path class="st4" d="M673.7,316c1.8,0,2.8,1.4,2.8,3.1v.2h-4.7c0,1.1.8,2,2.1,2s1.3-.3,1.8-.7l.4.6c-.6.6-1.4.9-2.3.9-1.7,0-3-1.2-3-3s1.2-3,2.9-3ZM671.8,318.6h3.8c0-.9-.6-1.9-1.9-1.9s-1.8,1-1.9,1.9Z"/>
      <path class="st4" d="M677.9,320.5c.4.4,1.1.8,1.9.8s1.4-.4,1.4-1-.7-.8-1.5-1c-1-.2-2.1-.5-2.1-1.7s.8-1.7,2.2-1.7,1.7.4,2.1.8l-.4.6c-.3-.4-1-.7-1.7-.7s-1.3.4-1.3.9.7.7,1.4.9c1,.2,2.2.5,2.2,1.8s-.8,1.8-2.3,1.8-1.8-.3-2.3-.9l.5-.6Z"/>
      <path class="st4" d="M683.3,323.1c.4-.3.7-.7.8-1.1,0,0-.1,0-.2,0-.3,0-.6-.3-.6-.6s.3-.6.6-.6.8.3.8.9-.4,1.4-1,1.8l-.4-.4Z"/>
      <path class="st4" d="M605,336.3v-8h.9v8h-.9Z"/>
      <path class="st4" d="M607.6,328.9c0-.3.3-.6.6-.6s.6.3.6.6-.3.6-.6.6-.6-.3-.6-.6ZM607.7,336.3v-5.8h.9v5.8h-.9Z"/>
      <path class="st4" d="M614.4,336.3l-2.1-2.6-1,.9v1.7h-.9v-8h.9v5.3l3-3.1h1.1l-2.6,2.6,2.6,3.2h-1.2Z"/>
      <path class="st4" d="M618.9,330.4c1.8,0,2.8,1.4,2.8,3.1v.2h-4.7c0,1.1.8,2,2.1,2s1.3-.3,1.8-.7l.4.6c-.6.6-1.4.9-2.3.9-1.7,0-3-1.2-3-3s1.2-3,2.9-3ZM616.9,333h3.8c0-.9-.6-1.9-1.9-1.9s-1.8,1-1.9,1.9Z"/>
      <path class="st4" d="M627.3,331.3v5h-.9v-5h-1v-.8h1v-.4c0-1.2.7-1.9,1.7-1.9s.6,0,.9.2l-.2.7c-.1,0-.3-.1-.5-.1-.6,0-.9.4-.9,1.1v.4h1.2v.8h-1.2Z"/>
      <path class="st4" d="M633.5,336.3v-.8c-.4.5-1.2,1-2.1,1s-1.8-.6-1.8-1.8v-4.1h.9v3.8c0,1,.5,1.3,1.3,1.3s1.4-.4,1.7-.9v-4.3h.9v5.8h-.9Z"/>
      <path class="st4" d="M636.2,336.3v-8h.9v8h-.9Z"/>
      <path class="st4" d="M638.9,336.3v-8h.9v8h-.9Z"/>
      <path class="st4" d="M644.9,335.1v-3.8h-1v-.8h1v-1.6h.9v1.6h1.2v.8h-1.2v3.6c0,.4.2.7.6.7s.5-.1.6-.2l.3.7c-.2.2-.6.4-1.1.4-.9,0-1.3-.5-1.3-1.4Z"/>
      <path class="st4" d="M648.1,328.9c0-.3.3-.6.6-.6s.6.3.6.6-.3.6-.6.6-.6-.3-.6-.6ZM648.2,336.3v-5.8h.9v5.8h-.9Z"/>
      <path class="st4" d="M657.9,336.3v-3.9c0-.7-.3-1.2-1.1-1.2s-1.2.4-1.5.9v4.2h-.9v-3.9c0-.7-.3-1.2-1.1-1.2s-1.2.4-1.5.9v4.2h-.9v-5.8h.9v.8c.2-.4,1-1,1.9-1s1.4.5,1.6,1.1c.3-.5,1.1-1.1,1.9-1.1s1.6.6,1.6,1.8v4.2h-.9Z"/>
      <path class="st4" d="M663.1,330.4c1.8,0,2.8,1.4,2.8,3.1v.2h-4.7c0,1.1.8,2,2.1,2s1.3-.3,1.8-.7l.4.6c-.6.6-1.4.9-2.3.9-1.7,0-3-1.2-3-3s1.2-3,2.9-3ZM661.2,333h3.8c0-.9-.6-1.9-1.9-1.9s-1.8,1-1.9,1.9Z"/>
      <path class="st4" d="M607.6,344.8c1.8,0,2.8,1.4,2.8,3.1v.2h-4.7c0,1.1.8,2,2.1,2s1.3-.3,1.8-.7l.4.6c-.6.6-1.4.9-2.3.9-1.7,0-3-1.2-3-3s1.2-3,2.9-3ZM605.7,347.4h3.8c0-.9-.6-1.9-1.9-1.9s-1.8,1-1.9,1.9Z"/>
      <path class="st4" d="M618.8,350.7v-3.9c0-.7-.3-1.2-1.1-1.2s-1.2.4-1.5.9v4.2h-.9v-3.9c0-.7-.3-1.2-1.1-1.2s-1.2.4-1.5.9v4.2h-.9v-5.8h.9v.8c.2-.4,1-1,1.9-1s1.4.5,1.6,1.1c.3-.5,1.1-1.1,1.9-1.1s1.6.6,1.6,1.8v4.2h-.9Z"/>
      <path class="st4" d="M622.4,352.9h-.9v-8h.9v.9c.4-.6,1.1-1,2-1,1.5,0,2.6,1.2,2.6,3s-1.1,3-2.6,3-1.5-.4-2-1v3.1ZM624.1,345.6c-.7,0-1.4.4-1.7.9v2.6c.3.5,1,.9,1.7.9,1.2,0,1.9-1,1.9-2.2s-.7-2.2-1.9-2.2Z"/>
      <path class="st4" d="M628.4,350.7v-8h.9v8h-.9Z"/>
      <path class="st4" d="M630.7,347.8c0-1.7,1.1-3,2.9-3s2.9,1.4,2.9,3-1.1,3-2.9,3-2.9-1.4-2.9-3ZM635.5,347.8c0-1.2-.7-2.2-1.9-2.2s-1.9,1.1-1.9,2.2.7,2.2,1.9,2.2,1.9-1.1,1.9-2.2Z"/>
      <path class="st4" d="M637.8,352.2c.1,0,.3,0,.5,0,.4,0,.7-.1.9-.6l.4-.9-2.4-5.9h1l1.9,4.8,1.9-4.8h1l-2.9,7c-.3.8-.9,1.2-1.7,1.2-.2,0-.5,0-.7,0v-.8Z"/>
      <path class="st4" d="M650.8,350.7v-3.9c0-.7-.3-1.2-1.1-1.2s-1.2.4-1.5.9v4.2h-.9v-3.9c0-.7-.3-1.2-1.1-1.2s-1.2.4-1.5.9v4.2h-.9v-5.8h.9v.8c.2-.4,1-1,1.9-1s1.4.5,1.6,1.1c.3-.5,1.1-1.1,1.9-1.1s1.6.6,1.6,1.8v4.2h-.9Z"/>
      <path class="st4" d="M656,344.8c1.8,0,2.8,1.4,2.8,3.1v.2h-4.7c0,1.1.8,2,2.1,2s1.3-.3,1.8-.7l.4.6c-.6.6-1.4.9-2.3.9-1.7,0-3-1.2-3-3s1.2-3,2.9-3ZM654.1,347.4h3.8c0-.9-.6-1.9-1.9-1.9s-1.8,1-1.9,1.9Z"/>
      <path class="st4" d="M664.2,350.7v-3.8c0-1-.5-1.3-1.3-1.3s-1.4.4-1.7.9v4.2h-.9v-5.8h.9v.8c.4-.5,1.2-1,2.1-1s1.8.6,1.8,1.9v4.1h-.9Z"/>
      <path class="st4" d="M667.1,349.5v-3.8h-1v-.8h1v-1.6h.9v1.6h1.2v.8h-1.2v3.6c0,.4.2.7.6.7s.5-.1.6-.2l.3.7c-.2.2-.6.4-1.1.4-.9,0-1.3-.5-1.3-1.4Z"/>
      <path class="st4" d="M673.2,347.8c0-1.7,1.1-3,2.9-3s2.9,1.4,2.9,3-1.1,3-2.9,3-2.9-1.4-2.9-3ZM678,347.8c0-1.2-.7-2.2-1.9-2.2s-1.9,1.1-1.9,2.2.7,2.2,1.9,2.2,1.9-1.1,1.9-2.2Z"/>
      <path class="st4" d="M680.4,350.7v-5.8h.9v.9c.5-.6,1.1-1.1,1.9-1.1v.9c-.1,0-.2,0-.4,0-.6,0-1.3.5-1.6.9v4.1h-.9Z"/>
      <path class="st4" d="M607.6,359.2c1.1,0,1.7.4,2.1,1l-.6.6c-.4-.5-.9-.8-1.5-.8-1.2,0-2,.9-2,2.2s.8,2.2,2,2.2,1.1-.2,1.5-.8l.6.6c-.4.6-1.1,1-2.1,1-1.7,0-2.9-1.3-2.9-3s1.2-3,2.9-3Z"/>
      <path class="st4" d="M614.6,365.1v-.7c-.5.5-1.1.8-1.9.8s-2-.7-2-1.9,1-1.9,2-1.9,1.5.3,1.9.8v-1c0-.8-.6-1.2-1.5-1.2s-1.3.3-1.8.8l-.4-.6c.6-.6,1.4-1,2.3-1s2.2.6,2.2,2v4h-.9ZM614.6,362.8c-.3-.5-1-.7-1.6-.7s-1.4.5-1.4,1.3.6,1.3,1.4,1.3,1.2-.2,1.6-.7v-1.1Z"/>
      <path class="st4" d="M617.3,365.1v-5.8h.9v.9c.5-.6,1.1-1.1,1.9-1.1v.9c-.1,0-.2,0-.4,0-.6,0-1.3.5-1.6.9v4.1h-.9Z"/>
      <path class="st4" d="M621.1,357.7c0-.3.3-.6.6-.6s.6.3.6.6-.3.6-.6.6-.6-.3-.6-.6ZM621.3,365.1v-5.8h.9v5.8h-.9Z"/>
      <path class="st4" d="M627.9,365.1v-3.8c0-1-.5-1.3-1.3-1.3s-1.4.4-1.7.9v4.2h-.9v-5.8h.9v.8c.4-.5,1.2-1,2.1-1s1.8.6,1.8,1.9v4.1h-.9Z"/>
      <path class="st4" d="M631,365.9c.5.6,1.1.8,1.9.8s1.9-.5,1.9-1.7v-.8c-.4.6-1.1,1-1.9,1-1.5,0-2.6-1.1-2.6-3s1.1-3,2.6-3,1.5.4,1.9,1v-.9h.9v5.6c0,1.9-1.3,2.5-2.8,2.5s-1.7-.2-2.3-.9l.5-.7ZM634.8,360.9c-.3-.5-1-.9-1.7-.9-1.2,0-1.9.9-1.9,2.2s.7,2.2,1.9,2.2,1.4-.4,1.7-.9v-2.5Z"/>
      <path class="st4" d="M641.7,360.1v5h-.9v-5h-1v-.8h1v-.4c0-1.2.7-1.9,1.7-1.9s.6,0,.9.2l-.2.7c-.1,0-.3-.1-.5-.1-.6,0-.9.4-.9,1.1v.4h1.2v.8h-1.2Z"/>
      <path class="st4" d="M643.6,362.2c0-1.7,1.1-3,2.9-3s2.9,1.4,2.9,3-1.1,3-2.9,3-2.9-1.4-2.9-3ZM648.4,362.2c0-1.2-.7-2.2-1.9-2.2s-1.9,1.1-1.9,2.2.7,2.2,1.9,2.2,1.9-1.1,1.9-2.2Z"/>
      <path class="st4" d="M650.8,365.1v-5.8h.9v.9c.5-.6,1.1-1.1,1.9-1.1v.9c-.1,0-.2,0-.4,0-.6,0-1.3.5-1.6.9v4.1h-.9Z"/>
      <path class="st4" d="M657.5,362.2c0-1.7,1.1-3,2.9-3s2.9,1.4,2.9,3-1.1,3-2.9,3-2.9-1.4-2.9-3ZM662.3,362.2c0-1.2-.7-2.2-1.9-2.2s-1.9,1.1-1.9,2.2.7,2.2,1.9,2.2,1.9-1.1,1.9-2.2Z"/>
      <path class="st4" d="M664.9,363.9v-3.8h-1v-.8h1v-1.6h.9v1.6h1.2v.8h-1.2v3.6c0,.4.2.7.6.7s.5-.1.6-.2l.3.7c-.2.2-.6.4-1.1.4-.9,0-1.3-.5-1.3-1.4Z"/>
      <path class="st4" d="M672.2,365.1v-3.8c0-1-.5-1.3-1.3-1.3s-1.4.4-1.7.9v4.2h-.9v-8h.9v3c.4-.5,1.2-1,2.1-1s1.8.6,1.8,1.8v4.1h-.9Z"/>
      <path class="st4" d="M677.4,359.2c1.8,0,2.8,1.4,2.8,3.1v.2h-4.7c0,1.1.8,2,2.1,2s1.3-.3,1.8-.7l.4.6c-.6.6-1.4.9-2.3.9-1.7,0-3-1.2-3-3s1.2-3,2.9-3ZM675.5,361.8h3.8c0-.9-.6-1.9-1.9-1.9s-1.8,1-1.9,1.9Z"/>
      <path class="st4" d="M681.7,365.1v-5.8h.9v.9c.5-.6,1.1-1.1,1.9-1.1v.9c-.1,0-.2,0-.4,0-.6,0-1.3.5-1.6.9v4.1h-.9Z"/>
      <path class="st4" d="M685.6,363.7c.4.4,1.1.8,1.9.8s1.4-.4,1.4-1-.7-.8-1.5-1c-1-.2-2.1-.5-2.1-1.7s.8-1.7,2.2-1.7,1.7.4,2.1.8l-.4.6c-.3-.4-1-.7-1.7-.7s-1.3.4-1.3.9.7.7,1.4.9c1,.2,2.2.5,2.2,1.8s-.8,1.8-2.3,1.8-1.8-.3-2.3-.9l.5-.6Z"/>
    </g>
  </g>
</svg>