<?xml version="1.0" encoding="UTF-8"?>
<svg xmlns="http://www.w3.org/2000/svg" version="1.1" viewBox="0 0 554.8 212.2">
  <!-- Generator: Adobe Illustrator 29.1.0, SVG Export Plug-In . SVG Version: 2.1.0 Build 142)  -->
  <defs>
    <style>
      .st0 {
        fill: #fff;
      }

      .st1 {
        fill: #f1625c;
        stroke: #231f20;
        stroke-miterlimit: 10;
      }
    </style>
  </defs>
  <g id="Layer_1">
    <rect class="st1" x="-201" y="-333.2" width="1048.7" height="878.1"/>
  </g>
  <g id="Layer_2">
    <path class="st0" d="M102.8,95.7h-50v-62h11v6h28v-6h11v62ZM77.8,25.7c1.7,0,3,1.3,3,3s-1.3,3-3,3-3-1.3-3-3,.3-1.6.9-2.1c.5-.6,1.3-.9,2.1-.9ZM104.8,27.7h-17v-2c0-2.2-1.8-4-4-4h-12c-2.2,0-4,1.8-4,4v2h-17c-2.2,0-4,1.8-4,4v66c0,2.2,1.8,4,4,4h54c2.2,0,4-1.8,4-4V31.7c0-2.2-1.8-4-4-4Z"/>
    <g>
      <path class="st0" d="M268.5,68c1.7-2.8.8-6.5-2-8.2-2.7-1.6-6.2-.9-8,1.7-3.7-3.6-9.6-3.6-13.3,0-.5.5-1,1.2-1.4,1.8-3.4.2-6.2,3-6.3,6.4v31h84v-31c-.2-4.6-4.2-8.2-8.8-8-.8,0-1.6.2-2.3.4-6.8-5.4-16.7-4.3-22.1,2.5l-.4.7c.3.3.6.5.9.8,5.1,5.1,5.1,13.3,0,18.4l-4,4c-5,5.1-13.2,5.2-18.4.2-5.1-5-5.2-13.2-.2-18.4q0,0,.2-.2l.5-.5,1.6-1.7Z"/>
      <path class="st0" d="M276.6,52.5c1,1.2,1.7,2.6,2.2,4.1.1.6.2,1.3.2,1.9v8c-2.2,0-4.3,1-5.9,2.6l-4,4c-3.5,3.5-3.5,9.2,0,12.7s9.2,3.5,12.7,0l4-4c3.5-3.5,3.5-9.2,0-12.7l-.2-.2-7,7,4.6-9.9v-7.6c0-1.8.4-3.5,1.1-5.1.9-2.4,2.6-4.4,4.8-5.7,4.2.1,11.7-.6,16.4-5.3,6.8-6.8,5.1-19.4,5.1-19.4,0,0-12.7-1.7-19.4,5.1-4.9,4.9-5.4,12.7-5.3,16.8-2.3,1.7-4,3.9-5.2,6.4-.3-.4-.6-.8-.9-1.2.1-3.4-.4-9.8-4.3-13.8-5.6-5.6-16-4.2-16-4.2,0,0-1.4,10.4,4.2,16,3.8,3.7,9.4,4.4,12.9,4.5Z"/>
    </g>
    <g>
      <path class="st0" d="M458.1,42.2v25.5c0,.5.2,1,.6,1.4l3.1,3.1-3.6,3.6c-.4.4-.6.9-.6,1.4v13.5c0,5.8,4.7,10.5,10.5,10.5h43c5.5,0,10-4.5,10-10,0-4.8-3.3-8.9-8-9.8v-26.7c0-.7-.3-1.3-.9-1.6l-3.2-2.3,3.6-4.3c.5-.7.6-1.6.2-2.3l-2.2-3.7,1.9-1.9c.4-.4.6-.9.6-1.4v-4.5c0-5.8-4.7-10.5-10.5-10.5h-51c-5.8,0-10.5,4.6-10.5,10.4,0,3.2,1.4,6.2,3.9,8.1,0,0,0,0,.1,0,1.3.9,2.8,1.4,4.3,1.4h8.6ZM455.7,38.2c.3-.7.4-1.4.4-2.1,0-3.3-2.6-5.9-5.9-6,0,0,0,0-.1,0-1.1,0-2,.9-2,2s.9,2,2,2c1.1,0,2,.8,2,1.9,0,0,0,0,0,0,0,.8-.5,1.5-1.2,1.8-1.1.5-2.4.4-3.4-.3-1.5-1.2-2.4-3-2.4-4.9,0-3.6,3-6.5,6.5-6.5,3.6,0,6.5,3,6.5,6.5v5.5h-2.4ZM471.1,81.3c-1.3,0-2.5.2-3.6.8-2,1-3.3,3.1-3.4,5.3,0,3.3,2.6,5.9,5.9,6,0,0,0,0,.1,0,1.1,0,2-.9,2-2s-.9-2-2-2c-1.1,0-2-.8-2-1.9,0,0,0,0,0,0,0-.8.5-1.5,1.2-1.8,1.1-.5,2.4-.4,3.4.3,1.5,1.2,2.4,3,2.4,4.9,0,3.6-2.9,6.4-6.5,6.4h-.5c-3.6,0-6.5-2.9-6.5-6.5v-12.7l4.4-4.4c.8-.8.8-2,0-2.8l-3.9-3.9v-34.2c0-2.4-.8-4.7-2.3-6.5h42.8c3.6,0,6.5,2.9,6.5,6.5v3.7l-2.4,2.4c-.6.6-.8,1.7-.3,2.4l2.3,3.8-4.1,4.9c-.7.8-.6,2.1.3,2.8,0,0,0,0,.1.1l4.1,2.9v25.5h-38ZM511.1,97.2h-34.2c2.8-3.5,3-8.3.6-12h33.6c3.3,0,6,2.7,6,6s-2.7,6-6,6Z"/>
      <path class="st0" d="M482.1,38.2h17v4h-17v-4Z"/>
      <path class="st0" d="M472.1,38.2h6v4h-6v-4Z"/>
      <path class="st0" d="M482.1,68.2h17v4h-17v-4Z"/>
      <path class="st0" d="M472.1,68.2h6v4h-6v-4Z"/>
      <path class="st0" d="M472.1,48.2h17v4h-17v-4Z"/>
      <path class="st0" d="M493.1,48.2h6v4h-6v-4Z"/>
      <path class="st0" d="M472.1,58.2h27v4h-27v-4Z"/>
    </g>
  </g>
  <g id="text_outlines">
    <g>
      <path class="st0" d="M21.5,150.4v-3.7h-4.7v3.7h-1v-8h1v3.4h4.7v-3.4h1v8h-1Z"/>
      <path class="st0" d="M26.8,144.5c1.8,0,2.8,1.4,2.8,3.1v.2h-4.7c0,1.1.8,2,2.1,2s1.3-.3,1.8-.7l.4.6c-.6.6-1.4.9-2.3.9-1.7,0-3-1.2-3-3s1.2-3,2.9-3ZM24.9,147.1h3.8c0-.9-.6-1.9-1.9-1.9s-1.8,1-1.9,1.9Z"/>
      <path class="st0" d="M31.1,150.4v-8h.9v8h-.9Z"/>
      <path class="st0" d="M34.7,152.6h-.9v-8h.9v.9c.4-.6,1.1-1,2-1,1.5,0,2.6,1.2,2.6,3s-1.1,3-2.6,3-1.5-.4-2-1v3.1ZM36.4,145.3c-.7,0-1.4.4-1.7.9v2.6c.3.5,1,.9,1.7.9,1.2,0,1.9-1,1.9-2.2s-.7-2.2-1.9-2.2Z"/>
      <path class="st0" d="M43.7,149c.4.4,1.1.8,1.9.8s1.4-.4,1.4-1-.7-.8-1.5-1c-1-.2-2.1-.5-2.1-1.7s.8-1.7,2.2-1.7,1.7.4,2.1.8l-.4.6c-.3-.4-1-.7-1.7-.7s-1.3.4-1.3.9.7.7,1.4.9c1,.2,2.2.5,2.2,1.8s-.8,1.8-2.3,1.8-1.8-.3-2.3-.9l.5-.6Z"/>
      <path class="st0" d="M51.8,144.5c1.8,0,2.8,1.4,2.8,3.1v.2h-4.7c0,1.1.8,2,2.1,2s1.3-.3,1.8-.7l.4.6c-.6.6-1.4.9-2.3.9-1.7,0-3-1.2-3-3s1.2-3,2.9-3ZM49.9,147.1h3.8c0-.9-.6-1.9-1.9-1.9s-1.8,1-1.9,1.9Z"/>
      <path class="st0" d="M56.3,149.2v-3.8h-1v-.8h1v-1.6h.9v1.6h1.2v.8h-1.2v3.6c0,.4.2.7.6.7s.5-.1.6-.2l.3.7c-.2.2-.6.4-1.1.4-.9,0-1.3-.5-1.3-1.4Z"/>
      <path class="st0" d="M62.9,149.2v-3.8h-1v-.8h1v-1.6h.9v1.6h1.2v.8h-1.2v3.6c0,.4.2.7.6.7s.5-.1.6-.2l.3.7c-.2.2-.6.4-1.1.4-.9,0-1.3-.5-1.3-1.4Z"/>
      <path class="st0" d="M70.2,150.4v-3.8c0-1-.5-1.3-1.3-1.3s-1.4.4-1.7.9v4.2h-.9v-8h.9v3c.4-.5,1.2-1,2.1-1s1.8.6,1.8,1.8v4.1h-.9Z"/>
      <path class="st0" d="M75.4,144.5c1.8,0,2.8,1.4,2.8,3.1v.2h-4.7c0,1.1.8,2,2.1,2s1.3-.3,1.8-.7l.4.6c-.6.6-1.4.9-2.3.9-1.7,0-3-1.2-3-3s1.2-3,2.9-3ZM73.5,147.1h3.8c0-.9-.6-1.9-1.9-1.9s-1.8,1-1.9,1.9Z"/>
      <path class="st0" d="M86.3,150.4v-.7c-.5.5-1.1.8-1.9.8s-2-.7-2-1.9,1-1.9,2-1.9,1.5.3,1.9.8v-1c0-.8-.6-1.2-1.5-1.2s-1.3.3-1.8.8l-.4-.6c.6-.6,1.4-1,2.3-1s2.2.6,2.2,2v4h-.9ZM86.3,148.1c-.3-.5-1-.7-1.6-.7s-1.4.5-1.4,1.3.6,1.3,1.4,1.3,1.2-.2,1.6-.7v-1.1Z"/>
      <path class="st0" d="M89.5,151.2c.5.6,1.1.8,1.9.8s1.9-.5,1.9-1.7v-.8c-.4.6-1.1,1-1.9,1-1.5,0-2.6-1.1-2.6-3s1.1-3,2.6-3,1.5.4,1.9,1v-.9h.9v5.6c0,1.9-1.3,2.5-2.8,2.5s-1.7-.2-2.3-.9l.5-.7ZM93.2,146.2c-.3-.5-1-.9-1.7-.9-1.2,0-1.9.9-1.9,2.2s.7,2.2,1.9,2.2,1.4-.4,1.7-.9v-2.5Z"/>
      <path class="st0" d="M98.4,144.5c1.8,0,2.8,1.4,2.8,3.1v.2h-4.7c0,1.1.8,2,2.1,2s1.3-.3,1.8-.7l.4.6c-.6.6-1.4.9-2.3.9-1.7,0-3-1.2-3-3s1.2-3,2.9-3ZM96.5,147.1h3.8c0-.9-.6-1.9-1.9-1.9s-1.8,1-1.9,1.9Z"/>
      <path class="st0" d="M106.6,150.4v-3.8c0-1-.5-1.3-1.3-1.3s-1.4.4-1.7.9v4.2h-.9v-5.8h.9v.8c.4-.5,1.2-1,2.1-1s1.8.6,1.8,1.9v4.1h-.9Z"/>
      <path class="st0" d="M113.5,150.4v-.9c-.4.6-1.1,1-2,1-1.5,0-2.6-1.2-2.6-3s1.1-3,2.6-3,1.5.4,2,1v-3.1h.9v8h-.9ZM113.5,146.2c-.3-.5-1-.9-1.7-.9-1.2,0-1.9,1-1.9,2.2s.7,2.2,1.9,2.2,1.4-.4,1.7-.9v-2.6Z"/>
      <path class="st0" d="M119.8,150.4v-.7c-.5.5-1.1.8-1.9.8s-2-.7-2-1.9,1-1.9,2-1.9,1.5.3,1.9.8v-1c0-.8-.6-1.2-1.5-1.2s-1.3.3-1.8.8l-.4-.6c.6-.6,1.4-1,2.3-1s2.2.6,2.2,2v4h-.9ZM119.8,148.1c-.3-.5-1-.7-1.6-.7s-1.4.5-1.4,1.3.6,1.3,1.4,1.3,1.2-.2,1.6-.7v-1.1Z"/>
      <path class="st0" d="M125.5,143c0-.3.3-.6.6-.6s.6.3.6.6-.3.6-.6.6-.6-.3-.6-.6ZM125.6,150.4v-5.8h.9v5.8h-.9Z"/>
      <path class="st0" d="M132.2,150.4v-3.8c0-1-.5-1.3-1.3-1.3s-1.4.4-1.7.9v4.2h-.9v-5.8h.9v.8c.4-.5,1.2-1,2.1-1s1.8.6,1.8,1.9v4.1h-.9Z"/>
      <path class="st0" d="M18.3,158.9c1.8,0,2.8,1.4,2.8,3.1v.2h-4.7c0,1.1.8,2,2.1,2s1.3-.3,1.8-.7l.4.6c-.6.6-1.4.9-2.3.9-1.7,0-3-1.2-3-3s1.2-3,2.9-3ZM16.4,161.5h3.8c0-.9-.6-1.9-1.9-1.9s-1.8,1-1.9,1.9Z"/>
      <path class="st0" d="M26.7,164.8v-.9c-.4.6-1.1,1-2,1-1.5,0-2.6-1.2-2.6-3s1.1-3,2.6-3,1.5.4,2,1v-3.1h.9v8h-.9ZM26.7,160.6c-.3-.5-1-.9-1.7-.9-1.2,0-1.9,1-1.9,2.2s.7,2.2,1.9,2.2,1.4-.4,1.7-.9v-2.6Z"/>
      <path class="st0" d="M33.3,164.8v-.8c-.4.5-1.2,1-2.1,1s-1.8-.6-1.8-1.8v-4.1h.9v3.8c0,1,.5,1.3,1.3,1.3s1.4-.4,1.7-.9v-4.3h.9v5.8h-.9Z"/>
      <path class="st0" d="M38.6,158.9c1.1,0,1.7.4,2.1,1l-.6.6c-.4-.5-.9-.8-1.5-.8-1.2,0-2,.9-2,2.2s.8,2.2,2,2.2,1.1-.2,1.5-.8l.6.6c-.4.6-1.1,1-2.1,1-1.7,0-2.9-1.3-2.9-3s1.2-3,2.9-3Z"/>
      <path class="st0" d="M45.6,164.8v-.7c-.5.5-1.1.8-1.9.8s-2-.7-2-1.9,1-1.9,2-1.9,1.5.3,1.9.8v-1c0-.8-.6-1.2-1.5-1.2s-1.3.3-1.8.8l-.4-.6c.6-.6,1.4-1,2.3-1s2.2.6,2.2,2v4h-.9ZM45.6,162.5c-.3-.5-1-.7-1.6-.7s-1.4.5-1.4,1.3.6,1.3,1.4,1.3,1.2-.2,1.6-.7v-1.1Z"/>
      <path class="st0" d="M48.5,163.6v-3.8h-1v-.8h1v-1.6h.9v1.6h1.2v.8h-1.2v3.6c0,.4.2.7.6.7s.5-.1.6-.2l.3.7c-.2.2-.6.4-1.1.4-.9,0-1.3-.5-1.3-1.4Z"/>
      <path class="st0" d="M51.7,157.4c0-.3.3-.6.6-.6s.6.3.6.6-.3.6-.6.6-.6-.3-.6-.6ZM51.8,164.8v-5.8h.9v5.8h-.9Z"/>
      <path class="st0" d="M54.2,161.9c0-1.7,1.1-3,2.9-3s2.9,1.4,2.9,3-1.1,3-2.9,3-2.9-1.4-2.9-3ZM59,161.9c0-1.2-.7-2.2-1.9-2.2s-1.9,1.1-1.9,2.2.7,2.2,1.9,2.2,1.9-1.1,1.9-2.2Z"/>
      <path class="st0" d="M65.3,164.8v-3.8c0-1-.5-1.3-1.3-1.3s-1.4.4-1.7.9v4.2h-.9v-5.8h.9v.8c.4-.5,1.2-1,2.1-1s1.8.6,1.8,1.9v4.1h-.9Z"/>
      <path class="st0" d="M67.8,166c.4-.3.7-.7.8-1.1,0,0-.1,0-.2,0-.3,0-.6-.3-.6-.6s.3-.6.6-.6.8.3.8.9-.4,1.4-1,1.8l-.4-.4Z"/>
      <path class="st0" d="M74,163.6v-3.8h-1v-.8h1v-1.6h.9v1.6h1.2v.8h-1.2v3.6c0,.4.2.7.6.7s.5-.1.6-.2l.3.7c-.2.2-.6.4-1.1.4-.9,0-1.3-.5-1.3-1.4Z"/>
      <path class="st0" d="M77.4,164.8v-5.8h.9v.9c.5-.6,1.1-1.1,1.9-1.1v.9c-.1,0-.2,0-.4,0-.6,0-1.3.5-1.6.9v4.1h-.9Z"/>
      <path class="st0" d="M85,164.8v-.7c-.5.5-1.1.8-1.9.8s-2-.7-2-1.9,1-1.9,2-1.9,1.5.3,1.9.8v-1c0-.8-.6-1.2-1.5-1.2s-1.3.3-1.8.8l-.4-.6c.6-.6,1.4-1,2.3-1s2.2.6,2.2,2v4h-.9ZM85,162.5c-.3-.5-1-.7-1.6-.7s-1.4.5-1.4,1.3.6,1.3,1.4,1.3,1.2-.2,1.6-.7v-1.1Z"/>
      <path class="st0" d="M87.5,157.4c0-.3.3-.6.6-.6s.6.3.6.6-.3.6-.6.6-.6-.3-.6-.6ZM87.7,164.8v-5.8h.9v5.8h-.9Z"/>
      <path class="st0" d="M94.3,164.8v-3.8c0-1-.5-1.3-1.3-1.3s-1.4.4-1.7.9v4.2h-.9v-5.8h.9v.8c.4-.5,1.2-1,2.1-1s1.8.6,1.8,1.9v4.1h-.9Z"/>
      <path class="st0" d="M96.8,157.4c0-.3.3-.6.6-.6s.6.3.6.6-.3.6-.6.6-.6-.3-.6-.6ZM97,164.8v-5.8h.9v5.8h-.9Z"/>
      <path class="st0" d="M103.6,164.8v-3.8c0-1-.5-1.3-1.3-1.3s-1.4.4-1.7.9v4.2h-.9v-5.8h.9v.8c.4-.5,1.2-1,2.1-1s1.8.6,1.8,1.9v4.1h-.9Z"/>
      <path class="st0" d="M106.7,165.6c.5.6,1.1.8,1.9.8s1.9-.5,1.9-1.7v-.8c-.4.6-1.1,1-1.9,1-1.5,0-2.6-1.1-2.6-3s1.1-3,2.6-3,1.5.4,1.9,1v-.9h.9v5.6c0,1.9-1.3,2.5-2.8,2.5s-1.7-.2-2.3-.9l.5-.7ZM110.5,160.6c-.3-.5-1-.9-1.7-.9-1.2,0-1.9.9-1.9,2.2s.7,2.2,1.9,2.2,1.4-.4,1.7-.9v-2.5Z"/>
      <path class="st0" d="M119.9,164.8v-.7c-.5.5-1.1.8-1.9.8s-2-.7-2-1.9,1-1.9,2-1.9,1.5.3,1.9.8v-1c0-.8-.6-1.2-1.5-1.2s-1.3.3-1.8.8l-.4-.6c.6-.6,1.4-1,2.3-1s2.2.6,2.2,2v4h-.9ZM119.9,162.5c-.3-.5-1-.7-1.6-.7s-1.4.5-1.4,1.3.6,1.3,1.4,1.3,1.2-.2,1.6-.7v-1.1Z"/>
      <path class="st0" d="M126.5,164.8v-3.8c0-1-.5-1.3-1.3-1.3s-1.4.4-1.7.9v4.2h-.9v-5.8h.9v.8c.4-.5,1.2-1,2.1-1s1.8.6,1.8,1.9v4.1h-.9Z"/>
      <path class="st0" d="M133.4,164.8v-.9c-.4.6-1.1,1-2,1-1.5,0-2.6-1.2-2.6-3s1.1-3,2.6-3,1.5.4,2,1v-3.1h.9v8h-.9ZM133.4,160.6c-.3-.5-1-.9-1.7-.9-1.2,0-1.9,1-1.9,2.2s.7,2.2,1.9,2.2,1.4-.4,1.7-.9v-2.6Z"/>
      <path class="st0" d="M15.8,179.2v-5.8h.9v.9c.5-.6,1.1-1.1,1.9-1.1v.9c-.1,0-.2,0-.4,0-.6,0-1.3.5-1.6.9v4.1h-.9Z"/>
      <path class="st0" d="M22.2,173.3c1.8,0,2.8,1.4,2.8,3.1v.2h-4.7c0,1.1.8,2,2.1,2s1.3-.3,1.8-.7l.4.6c-.6.6-1.4.9-2.3.9-1.7,0-3-1.2-3-3s1.2-3,2.9-3ZM20.3,175.9h3.8c0-.9-.6-1.9-1.9-1.9s-1.8,1-1.9,1.9Z"/>
      <path class="st0" d="M26.4,177.8c.4.4,1.1.8,1.9.8s1.4-.4,1.4-1-.7-.8-1.5-1c-1-.2-2.1-.5-2.1-1.7s.8-1.7,2.2-1.7,1.7.4,2.1.8l-.4.6c-.3-.4-1-.7-1.7-.7s-1.3.4-1.3.9.7.7,1.4.9c1,.2,2.2.5,2.2,1.8s-.8,1.8-2.3,1.8-1.8-.3-2.3-.9l.5-.6Z"/>
      <path class="st0" d="M34.6,173.3c1.8,0,2.8,1.4,2.8,3.1v.2h-4.7c0,1.1.8,2,2.1,2s1.3-.3,1.8-.7l.4.6c-.6.6-1.4.9-2.3.9-1.7,0-3-1.2-3-3s1.2-3,2.9-3ZM32.7,175.9h3.8c0-.9-.6-1.9-1.9-1.9s-1.8,1-1.9,1.9Z"/>
      <path class="st0" d="M42.4,179.2v-.7c-.5.5-1.1.8-1.9.8s-2-.7-2-1.9,1-1.9,2-1.9,1.5.3,1.9.8v-1c0-.8-.6-1.2-1.5-1.2s-1.3.3-1.8.8l-.4-.6c.6-.6,1.4-1,2.3-1s2.2.6,2.2,2v4h-.9ZM42.4,176.9c-.3-.5-1-.7-1.6-.7s-1.4.5-1.4,1.3.6,1.3,1.4,1.3,1.2-.2,1.6-.7v-1.1Z"/>
      <path class="st0" d="M45.1,179.2v-5.8h.9v.9c.5-.6,1.1-1.1,1.9-1.1v.9c-.1,0-.2,0-.4,0-.6,0-1.3.5-1.6.9v4.1h-.9Z"/>
      <path class="st0" d="M51.7,173.3c1.1,0,1.7.4,2.1,1l-.6.6c-.4-.5-.9-.8-1.5-.8-1.2,0-2,.9-2,2.2s.8,2.2,2,2.2,1.1-.2,1.5-.8l.6.6c-.4.6-1.1,1-2.1,1-1.7,0-2.9-1.3-2.9-3s1.2-3,2.9-3Z"/>
      <path class="st0" d="M59,179.2v-3.8c0-1-.5-1.3-1.3-1.3s-1.4.4-1.7.9v4.2h-.9v-8h.9v3c.4-.5,1.2-1,2.1-1s1.8.6,1.8,1.8v4.1h-.9Z"/>
    </g>
    <g>
      <path class="st0" d="M208.6,150.4v-8h3.2c1.6,0,2.5,1.1,2.5,2.4s-.9,2.4-2.5,2.4h-2.2v3.2h-1ZM211.7,143.3h-2.1v3h2.1c.9,0,1.6-.6,1.6-1.5s-.6-1.5-1.6-1.5Z"/>
      <path class="st0" d="M215.6,150.4v-5.8h.9v.9c.5-.6,1.1-1.1,1.9-1.1v.9c-.1,0-.2,0-.4,0-.6,0-1.3.5-1.6.9v4.1h-.9Z"/>
      <path class="st0" d="M222.1,144.5c1.8,0,2.8,1.4,2.8,3.1v.2h-4.7c0,1.1.8,2,2.1,2s1.3-.3,1.8-.7l.4.6c-.6.6-1.4.9-2.3.9-1.7,0-3-1.2-3-3s1.2-3,2.9-3ZM220.2,147.1h3.8c0-.9-.6-1.9-1.9-1.9s-1.8,1-1.9,1.9Z"/>
      <path class="st0" d="M227.2,152.6h-.9v-8h.9v.9c.4-.6,1.1-1,2-1,1.5,0,2.6,1.2,2.6,3s-1.1,3-2.6,3-1.5-.4-2-1v3.1ZM229,145.3c-.7,0-1.4.4-1.7.9v2.6c.3.5,1,.9,1.7.9,1.2,0,1.9-1,1.9-2.2s-.7-2.2-1.9-2.2Z"/>
      <path class="st0" d="M236.8,150.4v-.7c-.5.5-1.1.8-1.9.8s-2-.7-2-1.9,1-1.9,2-1.9,1.5.3,1.9.8v-1c0-.8-.6-1.2-1.5-1.2s-1.3.3-1.8.8l-.4-.6c.6-.6,1.4-1,2.3-1s2.2.6,2.2,2v4h-.9ZM236.8,148.1c-.3-.5-1-.7-1.6-.7s-1.4.5-1.4,1.3.6,1.3,1.4,1.3,1.2-.2,1.6-.7v-1.1Z"/>
      <path class="st0" d="M239.5,150.4v-5.8h.9v.9c.5-.6,1.1-1.1,1.9-1.1v.9c-.1,0-.2,0-.4,0-.6,0-1.3.5-1.6.9v4.1h-.9Z"/>
      <path class="st0" d="M246,144.5c1.8,0,2.8,1.4,2.8,3.1v.2h-4.7c0,1.1.8,2,2.1,2s1.3-.3,1.8-.7l.4.6c-.6.6-1.4.9-2.3.9-1.7,0-3-1.2-3-3s1.2-3,2.9-3ZM244.1,147.1h3.8c0-.9-.6-1.9-1.9-1.9s-1.8,1-1.9,1.9Z"/>
      <path class="st0" d="M253.5,149.2v-3.8h-1v-.8h1v-1.6h.9v1.6h1.2v.8h-1.2v3.6c0,.4.2.7.6.7s.5-.1.6-.2l.3.7c-.2.2-.6.4-1.1.4-.9,0-1.3-.5-1.3-1.4Z"/>
      <path class="st0" d="M260.8,150.4v-3.8c0-1-.5-1.3-1.3-1.3s-1.4.4-1.7.9v4.2h-.9v-8h.9v3c.4-.5,1.2-1,2.1-1s1.8.6,1.8,1.8v4.1h-.9Z"/>
      <path class="st0" d="M266,144.5c1.8,0,2.8,1.4,2.8,3.1v.2h-4.7c0,1.1.8,2,2.1,2s1.3-.3,1.8-.7l.4.6c-.6.6-1.4.9-2.3.9-1.7,0-3-1.2-3-3s1.2-3,2.9-3ZM264.1,147.1h3.8c0-.9-.6-1.9-1.9-1.9s-1.8,1-1.9,1.9Z"/>
      <path class="st0" d="M273.3,149c.4.4,1.1.8,1.9.8s1.4-.4,1.4-1-.7-.8-1.5-1c-1-.2-2.1-.5-2.1-1.7s.8-1.7,2.2-1.7,1.7.4,2.1.8l-.4.6c-.3-.4-1-.7-1.7-.7s-1.3.4-1.3.9.7.7,1.4.9c1,.2,2.2.5,2.2,1.8s-.8,1.8-2.3,1.8-1.8-.3-2.3-.9l.5-.6Z"/>
      <path class="st0" d="M282.8,150.4v-.8c-.4.5-1.2,1-2.1,1s-1.8-.6-1.8-1.8v-4.1h.9v3.8c0,1,.5,1.3,1.3,1.3s1.4-.4,1.7-.9v-4.3h.9v5.8h-.9Z"/>
      <path class="st0" d="M286.4,152.6h-.9v-8h.9v.9c.4-.6,1.1-1,2-1,1.5,0,2.6,1.2,2.6,3s-1.1,3-2.6,3-1.5-.4-2-1v3.1ZM288.2,145.3c-.7,0-1.4.4-1.7.9v2.6c.3.5,1,.9,1.7.9,1.2,0,1.9-1,1.9-2.2s-.7-2.2-1.9-2.2Z"/>
      <path class="st0" d="M293.3,152.6h-.9v-8h.9v.9c.4-.6,1.1-1,2-1,1.5,0,2.6,1.2,2.6,3s-1.1,3-2.6,3-1.5-.4-2-1v3.1ZM295.1,145.3c-.7,0-1.4.4-1.7.9v2.6c.3.5,1,.9,1.7.9,1.2,0,1.9-1,1.9-2.2s-.7-2.2-1.9-2.2Z"/>
      <path class="st0" d="M299.3,150.4v-8h.9v8h-.9Z"/>
      <path class="st0" d="M301.8,151.9c.1,0,.3,0,.5,0,.4,0,.7-.1.9-.6l.4-.9-2.4-5.9h1l1.9,4.7,1.9-4.7h1l-2.9,7c-.3.8-.9,1.2-1.7,1.2-.2,0-.5,0-.7,0v-.8Z"/>
      <path class="st0" d="M313.6,144.5c1.1,0,1.7.4,2.1,1l-.6.6c-.4-.5-.9-.8-1.5-.8-1.2,0-2,.9-2,2.2s.8,2.2,2,2.2,1.1-.2,1.5-.8l.6.6c-.4.6-1.1,1-2.1,1-1.7,0-2.9-1.3-2.9-3s1.2-3,2.9-3Z"/>
      <path class="st0" d="M320.9,150.4v-3.8c0-1-.5-1.3-1.3-1.3s-1.4.4-1.7.9v4.2h-.9v-8h.9v3c.4-.5,1.2-1,2.1-1s1.8.6,1.8,1.8v4.1h-.9Z"/>
      <path class="st0" d="M327.2,150.4v-.7c-.5.5-1.1.8-1.9.8s-2-.7-2-1.9,1-1.9,2-1.9,1.5.3,1.9.8v-1c0-.8-.6-1.2-1.5-1.2s-1.3.3-1.8.8l-.4-.6c.6-.6,1.4-1,2.3-1s2.2.6,2.2,2v4h-.9ZM327.2,148.1c-.3-.5-1-.7-1.6-.7s-1.4.5-1.4,1.3.6,1.3,1.4,1.3,1.2-.2,1.6-.7v-1.1Z"/>
      <path class="st0" d="M329.7,143c0-.3.3-.6.6-.6s.6.3.6.6-.3.6-.6.6-.6-.3-.6-.6ZM329.9,150.4v-5.8h.9v5.8h-.9Z"/>
      <path class="st0" d="M336.5,150.4v-3.8c0-1-.5-1.3-1.3-1.3s-1.4.4-1.7.9v4.2h-.9v-5.8h.9v.8c.4-.5,1.2-1,2.1-1s1.8.6,1.8,1.9v4.1h-.9Z"/>
      <path class="st0" d="M215.6,164.8v-3.9c0-.7-.3-1.2-1.1-1.2s-1.2.4-1.5.9v4.2h-.9v-3.9c0-.7-.3-1.2-1.1-1.2s-1.2.4-1.5.9v4.2h-.9v-5.8h.9v.8c.2-.4,1-1,1.9-1s1.4.5,1.6,1.1c.3-.5,1.1-1.1,1.9-1.1s1.6.6,1.6,1.8v4.2h-.9Z"/>
      <path class="st0" d="M221.9,164.8v-.7c-.5.5-1.1.8-1.9.8s-2-.7-2-1.9,1-1.9,2-1.9,1.5.3,1.9.8v-1c0-.8-.6-1.2-1.5-1.2s-1.3.3-1.8.8l-.4-.6c.6-.6,1.4-1,2.3-1s2.2.6,2.2,2v4h-.9ZM221.9,162.5c-.3-.5-1-.7-1.6-.7s-1.4.5-1.4,1.3.6,1.3,1.4,1.3,1.2-.2,1.6-.7v-1.1Z"/>
      <path class="st0" d="M228.5,164.8v-3.8c0-1-.5-1.3-1.3-1.3s-1.4.4-1.7.9v4.2h-.9v-5.8h.9v.8c.4-.5,1.2-1,2.1-1s1.8.6,1.8,1.9v4.1h-.9Z"/>
      <path class="st0" d="M234.8,164.8v-.7c-.5.5-1.1.8-1.9.8s-2-.7-2-1.9,1-1.9,2-1.9,1.5.3,1.9.8v-1c0-.8-.6-1.2-1.5-1.2s-1.3.3-1.8.8l-.4-.6c.6-.6,1.4-1,2.3-1s2.2.6,2.2,2v4h-.9ZM234.8,162.5c-.3-.5-1-.7-1.6-.7s-1.4.5-1.4,1.3.6,1.3,1.4,1.3,1.2-.2,1.6-.7v-1.1Z"/>
      <path class="st0" d="M238,165.6c.5.6,1.1.8,1.9.8s1.9-.5,1.9-1.7v-.8c-.4.6-1.1,1-1.9,1-1.5,0-2.6-1.1-2.6-3s1.1-3,2.6-3,1.5.4,1.9,1v-.9h.9v5.6c0,1.9-1.3,2.5-2.8,2.5s-1.7-.2-2.3-.9l.5-.7ZM241.7,160.6c-.3-.5-1-.9-1.7-.9-1.2,0-1.9.9-1.9,2.2s.7,2.2,1.9,2.2,1.4-.4,1.7-.9v-2.5Z"/>
      <path class="st0" d="M246.9,158.9c1.8,0,2.8,1.4,2.8,3.1v.2h-4.7c0,1.1.8,2,2.1,2s1.3-.3,1.8-.7l.4.6c-.6.6-1.4.9-2.3.9-1.7,0-3-1.2-3-3s1.2-3,2.9-3ZM245,161.5h3.8c0-.9-.6-1.9-1.9-1.9s-1.8,1-1.9,1.9Z"/>
      <path class="st0" d="M258.2,164.8v-3.9c0-.7-.3-1.2-1.1-1.2s-1.2.4-1.5.9v4.2h-.9v-3.9c0-.7-.3-1.2-1.1-1.2s-1.2.4-1.5.9v4.2h-.9v-5.8h.9v.8c.2-.4,1-1,1.9-1s1.4.5,1.6,1.1c.3-.5,1.1-1.1,1.9-1.1s1.6.6,1.6,1.8v4.2h-.9Z"/>
      <path class="st0" d="M263.4,158.9c1.8,0,2.8,1.4,2.8,3.1v.2h-4.7c0,1.1.8,2,2.1,2s1.3-.3,1.8-.7l.4.6c-.6.6-1.4.9-2.3.9-1.7,0-3-1.2-3-3s1.2-3,2.9-3ZM261.5,161.5h3.8c0-.9-.6-1.9-1.9-1.9s-1.8,1-1.9,1.9Z"/>
      <path class="st0" d="M271.5,164.8v-3.8c0-1-.5-1.3-1.3-1.3s-1.4.4-1.7.9v4.2h-.9v-5.8h.9v.8c.4-.5,1.2-1,2.1-1s1.8.6,1.8,1.9v4.1h-.9Z"/>
      <path class="st0" d="M274.4,163.6v-3.8h-1v-.8h1v-1.6h.9v1.6h1.2v.8h-1.2v3.6c0,.4.2.7.6.7s.5-.1.6-.2l.3.7c-.2.2-.6.4-1.1.4-.9,0-1.3-.5-1.3-1.4Z"/>
      <path class="st0" d="M284.5,164.8v-.7c-.5.5-1.1.8-1.9.8s-2-.7-2-1.9,1-1.9,2-1.9,1.5.3,1.9.8v-1c0-.8-.6-1.2-1.5-1.2s-1.3.3-1.8.8l-.4-.6c.6-.6,1.4-1,2.3-1s2.2.6,2.2,2v4h-.9ZM284.5,162.5c-.3-.5-1-.7-1.6-.7s-1.4.5-1.4,1.3.6,1.3,1.4,1.3,1.2-.2,1.6-.7v-1.1Z"/>
      <path class="st0" d="M291.1,164.8v-3.8c0-1-.5-1.3-1.3-1.3s-1.4.4-1.7.9v4.2h-.9v-5.8h.9v.8c.4-.5,1.2-1,2.1-1s1.8.6,1.8,1.9v4.1h-.9Z"/>
      <path class="st0" d="M298,164.8v-.9c-.4.6-1.1,1-2,1-1.5,0-2.6-1.2-2.6-3s1.1-3,2.6-3,1.5.4,2,1v-3.1h.9v8h-.9ZM298,160.6c-.3-.5-1-.9-1.7-.9-1.2,0-1.9,1-1.9,2.2s.7,2.2,1.9,2.2,1.4-.4,1.7-.9v-2.6Z"/>
      <path class="st0" d="M303.8,164.8v-8h.9v8h-.9Z"/>
      <path class="st0" d="M306.2,161.9c0-1.7,1.1-3,2.9-3s2.9,1.4,2.9,3-1.1,3-2.9,3-2.9-1.4-2.9-3ZM310.9,161.9c0-1.2-.7-2.2-1.9-2.2s-1.9,1.1-1.9,2.2.7,2.2,1.9,2.2,1.9-1.1,1.9-2.2Z"/>
      <path class="st0" d="M313.8,165.6c.5.6,1.1.8,1.9.8s1.9-.5,1.9-1.7v-.8c-.4.6-1.1,1-1.9,1-1.5,0-2.6-1.1-2.6-3s1.1-3,2.6-3,1.5.4,1.9,1v-.9h.9v5.6c0,1.9-1.3,2.5-2.8,2.5s-1.7-.2-2.3-.9l.5-.7ZM317.5,160.6c-.3-.5-1-.9-1.7-.9-1.2,0-1.9.9-1.9,2.2s.7,2.2,1.9,2.2,1.4-.4,1.7-.9v-2.5Z"/>
      <path class="st0" d="M320.1,157.4c0-.3.3-.6.6-.6s.6.3.6.6-.3.6-.6.6-.6-.3-.6-.6ZM320.2,164.8v-5.8h.9v5.8h-.9Z"/>
      <path class="st0" d="M322.9,163.4c.4.4,1.1.8,1.9.8s1.4-.4,1.4-1-.7-.8-1.5-1c-1-.2-2.1-.5-2.1-1.7s.8-1.7,2.2-1.7,1.7.4,2.1.8l-.4.6c-.3-.4-1-.7-1.7-.7s-1.3.4-1.3.9.7.7,1.4.9c1,.2,2.2.5,2.2,1.8s-.8,1.8-2.3,1.8-1.8-.3-2.3-.9l.5-.6Z"/>
      <path class="st0" d="M328.7,163.6v-3.8h-1v-.8h1v-1.6h.9v1.6h1.2v.8h-1.2v3.6c0,.4.2.7.6.7s.5-.1.6-.2l.3.7c-.2.2-.6.4-1.1.4-.9,0-1.3-.5-1.3-1.4Z"/>
      <path class="st0" d="M331.9,157.4c0-.3.3-.6.6-.6s.6.3.6.6-.3.6-.6.6-.6-.3-.6-.6ZM332,164.8v-5.8h.9v5.8h-.9Z"/>
      <path class="st0" d="M337.3,158.9c1.1,0,1.7.4,2.1,1l-.6.6c-.4-.5-.9-.8-1.5-.8-1.2,0-2,.9-2,2.2s.8,2.2,2,2.2,1.1-.2,1.5-.8l.6.6c-.4.6-1.1,1-2.1,1-1.7,0-2.9-1.3-2.9-3s1.2-3,2.9-3Z"/>
      <path class="st0" d="M340.7,163.4c.4.4,1.1.8,1.9.8s1.4-.4,1.4-1-.7-.8-1.5-1c-1-.2-2.1-.5-2.1-1.7s.8-1.7,2.2-1.7,1.7.4,2.1.8l-.4.6c-.3-.4-1-.7-1.7-.7s-1.3.4-1.3.9.7.7,1.4.9c1,.2,2.2.5,2.2,1.8s-.8,1.8-2.3,1.8-1.8-.3-2.3-.9l.5-.6Z"/>
      <path class="st0" d="M208.4,171.8c0-.3.3-.6.6-.6s.6.3.6.6-.3.6-.6.6-.6-.3-.6-.6ZM208.6,179.2v-5.8h.9v5.8h-.9Z"/>
      <path class="st0" d="M215.2,179.2v-3.8c0-1-.5-1.3-1.3-1.3s-1.4.4-1.7.9v4.2h-.9v-5.8h.9v.8c.4-.5,1.2-1,2.1-1s1.8.6,1.8,1.9v4.1h-.9Z"/>
      <path class="st0" d="M222.1,179.2v-.9c-.4.6-1.1,1-2,1-1.5,0-2.6-1.2-2.6-3s1.1-3,2.6-3,1.5.4,2,1v-3.1h.9v8h-.9ZM222.1,175c-.3-.5-1-.9-1.7-.9-1.2,0-1.9,1-1.9,2.2s.7,2.2,1.9,2.2,1.4-.4,1.7-.9v-2.6Z"/>
      <path class="st0" d="M228.7,179.2v-.8c-.4.5-1.2,1-2.1,1s-1.8-.6-1.8-1.8v-4.1h.9v3.8c0,1,.5,1.3,1.3,1.3s1.4-.4,1.7-.9v-4.3h.9v5.8h-.9Z"/>
      <path class="st0" d="M231.4,177.8c.4.4,1.1.8,1.9.8s1.4-.4,1.4-1-.7-.8-1.5-1c-1-.2-2.1-.5-2.1-1.7s.8-1.7,2.2-1.7,1.7.4,2.1.8l-.4.6c-.3-.4-1-.7-1.7-.7s-1.3.4-1.3.9.7.7,1.4.9c1,.2,2.2.5,2.2,1.8s-.8,1.8-2.3,1.8-1.8-.3-2.3-.9l.5-.6Z"/>
      <path class="st0" d="M237.2,178v-3.8h-1v-.8h1v-1.6h.9v1.6h1.2v.8h-1.2v3.6c0,.4.2.7.6.7s.5-.1.6-.2l.3.7c-.2.2-.6.4-1.1.4-.9,0-1.3-.5-1.3-1.4Z"/>
      <path class="st0" d="M240.5,179.2v-5.8h.9v.9c.5-.6,1.1-1.1,1.9-1.1v.9c-.1,0-.2,0-.4,0-.6,0-1.3.5-1.6.9v4.1h-.9Z"/>
      <path class="st0" d="M244.3,180.7c.1,0,.3,0,.5,0,.4,0,.7-.1.9-.6l.4-.9-2.4-5.9h1l1.9,4.7,1.9-4.7h1l-2.9,7c-.3.8-.9,1.2-1.7,1.2-.2,0-.5,0-.7,0v-.8Z"/>
      <path class="st0" d="M254.6,174.2v5h-.9v-5h-1v-.8h1v-.4c0-1.2.7-1.9,1.7-1.9s.6,0,.9.2l-.2.7c-.1,0-.3-.1-.5-.1-.6,0-.9.4-.9,1.1v.4h1.2v.8h-1.2Z"/>
      <path class="st0" d="M256.5,176.3c0-1.7,1.1-3,2.9-3s2.9,1.4,2.9,3-1.1,3-2.9,3-2.9-1.4-2.9-3ZM261.3,176.3c0-1.2-.7-2.2-1.9-2.2s-1.9,1.1-1.9,2.2.7,2.2,1.9,2.2,1.9-1.1,1.9-2.2Z"/>
      <path class="st0" d="M263.7,179.2v-5.8h.9v.9c.5-.6,1.1-1.1,1.9-1.1v.9c-.1,0-.2,0-.4,0-.6,0-1.3.5-1.6.9v4.1h-.9Z"/>
      <path class="st0" d="M274.4,179.2v-.7c-.5.5-1.1.8-1.9.8s-2-.7-2-1.9,1-1.9,2-1.9,1.5.3,1.9.8v-1c0-.8-.6-1.2-1.5-1.2s-1.3.3-1.8.8l-.4-.6c.6-.6,1.4-1,2.3-1s2.2.6,2.2,2v4h-.9ZM274.4,176.9c-.3-.5-1-.7-1.6-.7s-1.4.5-1.4,1.3.6,1.3,1.4,1.3,1.2-.2,1.6-.7v-1.1Z"/>
      <path class="st0" d="M281.3,174.2v5h-.9v-5h-1v-.8h1v-.4c0-1.2.7-1.9,1.7-1.9s.6,0,.9.2l-.2.7c-.1,0-.3-.1-.5-.1-.6,0-.9.4-.9,1.1v.4h1.2v.8h-1.2Z"/>
      <path class="st0" d="M287.5,179.2v-.8c-.4.5-1.2,1-2.1,1s-1.8-.6-1.8-1.8v-4.1h.9v3.8c0,1,.5,1.3,1.3,1.3s1.4-.4,1.7-.9v-4.3h.9v5.8h-.9Z"/>
      <path class="st0" d="M290.4,178v-3.8h-1v-.8h1v-1.6h.9v1.6h1.2v.8h-1.2v3.6c0,.4.2.7.6.7s.5-.1.6-.2l.3.7c-.2.2-.6.4-1.1.4-.9,0-1.3-.5-1.3-1.4Z"/>
      <path class="st0" d="M297.6,179.2v-.8c-.4.5-1.2,1-2.1,1s-1.8-.6-1.8-1.8v-4.1h.9v3.8c0,1,.5,1.3,1.3,1.3s1.4-.4,1.7-.9v-4.3h.9v5.8h-.9Z"/>
      <path class="st0" d="M300.3,179.2v-5.8h.9v.9c.5-.6,1.1-1.1,1.9-1.1v.9c-.1,0-.2,0-.4,0-.6,0-1.3.5-1.6.9v4.1h-.9Z"/>
      <path class="st0" d="M306.8,173.3c1.8,0,2.8,1.4,2.8,3.1v.2h-4.7c0,1.1.8,2,2.1,2s1.3-.3,1.8-.7l.4.6c-.6.6-1.4.9-2.3.9-1.7,0-3-1.2-3-3s1.2-3,2.9-3ZM304.9,175.9h3.8c0-.9-.6-1.9-1.9-1.9s-1.8,1-1.9,1.9Z"/>
      <path class="st0" d="M313.8,176.3c0-1.7,1.1-3,2.9-3s2.9,1.4,2.9,3-1.1,3-2.9,3-2.9-1.4-2.9-3ZM318.6,176.3c0-1.2-.7-2.2-1.9-2.2s-1.9,1.1-1.9,2.2.7,2.2,1.9,2.2,1.9-1.1,1.9-2.2Z"/>
      <path class="st0" d="M322.1,174.2v5h-.9v-5h-1v-.8h1v-.4c0-1.2.7-1.9,1.7-1.9s.6,0,.9.2l-.2.7c-.1,0-.3-.1-.5-.1-.6,0-.9.4-.9,1.1v.4h1.2v.8h-1.2Z"/>
      <path class="st0" d="M209,194.4c.5.6,1.1.8,1.9.8s1.9-.5,1.9-1.7v-.8c-.4.6-1.1,1-1.9,1-1.5,0-2.6-1.1-2.6-3s1.1-3,2.6-3,1.5.4,1.9,1v-.9h.9v5.6c0,1.9-1.3,2.5-2.8,2.5s-1.7-.2-2.3-.9l.5-.7ZM212.8,189.4c-.3-.5-1-.9-1.7-.9-1.2,0-1.9.9-1.9,2.2s.7,2.2,1.9,2.2,1.4-.4,1.7-.9v-2.5Z"/>
      <path class="st0" d="M215.5,193.6v-5.8h.9v.9c.5-.6,1.1-1.1,1.9-1.1v.9c-.1,0-.2,0-.4,0-.6,0-1.3.5-1.6.9v4.1h-.9Z"/>
      <path class="st0" d="M219.1,190.7c0-1.7,1.1-3,2.9-3s2.9,1.4,2.9,3-1.1,3-2.9,3-2.9-1.4-2.9-3ZM223.9,190.7c0-1.2-.7-2.2-1.9-2.2s-1.9,1.1-1.9,2.2.7,2.2,1.9,2.2,1.9-1.1,1.9-2.2Z"/>
      <path class="st0" d="M231.3,193.6l-1.5-4.7-1.5,4.7h-.9l-1.8-5.8h.9l1.4,4.6,1.5-4.6h.8l1.5,4.6,1.4-4.6h.9l-1.8,5.8h-.9Z"/>
      <path class="st0" d="M235.3,192.4v-3.8h-1v-.8h1v-1.6h.9v1.6h1.2v.8h-1.2v3.6c0,.4.2.7.6.7s.5-.1.6-.2l.3.7c-.2.2-.6.4-1.1.4-.9,0-1.3-.5-1.3-1.4Z"/>
      <path class="st0" d="M242.5,193.6v-3.8c0-1-.5-1.3-1.3-1.3s-1.4.4-1.7.9v4.2h-.9v-8h.9v3c.4-.5,1.2-1,2.1-1s1.8.6,1.8,1.8v4.1h-.9Z"/>
      <path class="st0" d="M252,193.6v-.7c-.5.5-1.1.8-1.9.8s-2-.7-2-1.9,1-1.9,2-1.9,1.5.3,1.9.8v-1c0-.8-.6-1.2-1.5-1.2s-1.3.3-1.8.8l-.4-.6c.6-.6,1.4-1,2.3-1s2.2.6,2.2,2v4h-.9ZM252,191.3c-.3-.5-1-.7-1.6-.7s-1.4.5-1.4,1.3.6,1.3,1.4,1.3,1.2-.2,1.6-.7v-1.1Z"/>
      <path class="st0" d="M258.6,193.6v-3.8c0-1-.5-1.3-1.3-1.3s-1.4.4-1.7.9v4.2h-.9v-5.8h.9v.8c.4-.5,1.2-1,2.1-1s1.8.6,1.8,1.9v4.1h-.9Z"/>
      <path class="st0" d="M265.5,193.6v-.9c-.4.6-1.1,1-2,1-1.5,0-2.6-1.2-2.6-3s1.1-3,2.6-3,1.5.4,2,1v-3.1h.9v8h-.9ZM265.5,189.4c-.3-.5-1-.9-1.7-.9-1.2,0-1.9,1-1.9,2.2s.7,2.2,1.9,2.2,1.4-.4,1.7-.9v-2.6Z"/>
      <path class="st0" d="M271.1,186.2c0-.3.3-.6.6-.6s.6.3.6.6-.3.6-.6.6-.6-.3-.6-.6ZM271.3,193.6v-5.8h.9v5.8h-.9Z"/>
      <path class="st0" d="M277.9,193.6v-3.8c0-1-.5-1.3-1.3-1.3s-1.4.4-1.7.9v4.2h-.9v-5.8h.9v.8c.4-.5,1.2-1,2.1-1s1.8.6,1.8,1.9v4.1h-.9Z"/>
      <path class="st0" d="M284.5,193.6v-3.8c0-1-.5-1.3-1.3-1.3s-1.4.4-1.7.9v4.2h-.9v-5.8h.9v.8c.4-.5,1.2-1,2.1-1s1.8.6,1.8,1.9v4.1h-.9Z"/>
      <path class="st0" d="M286.9,190.7c0-1.7,1.1-3,2.9-3s2.9,1.4,2.9,3-1.1,3-2.9,3-2.9-1.4-2.9-3ZM291.6,190.7c0-1.2-.7-2.2-1.9-2.2s-1.9,1.1-1.9,2.2.7,2.2,1.9,2.2,1.9-1.1,1.9-2.2Z"/>
      <path class="st0" d="M295.6,193.6l-2.4-5.8h1l1.9,4.7,1.9-4.7h1l-2.4,5.8h-1Z"/>
      <path class="st0" d="M303.6,193.6v-.7c-.5.5-1.1.8-1.9.8s-2-.7-2-1.9,1-1.9,2-1.9,1.5.3,1.9.8v-1c0-.8-.6-1.2-1.5-1.2s-1.3.3-1.8.8l-.4-.6c.6-.6,1.4-1,2.3-1s2.2.6,2.2,2v4h-.9ZM303.6,191.3c-.3-.5-1-.7-1.6-.7s-1.4.5-1.4,1.3.6,1.3,1.4,1.3,1.2-.2,1.6-.7v-1.1Z"/>
      <path class="st0" d="M306.4,192.4v-3.8h-1v-.8h1v-1.6h.9v1.6h1.2v.8h-1.2v3.6c0,.4.2.7.6.7s.5-.1.6-.2l.3.7c-.2.2-.6.4-1.1.4-.9,0-1.3-.5-1.3-1.4Z"/>
      <path class="st0" d="M309.6,186.2c0-.3.3-.6.6-.6s.6.3.6.6-.3.6-.6.6-.6-.3-.6-.6ZM309.8,193.6v-5.8h.9v5.8h-.9Z"/>
      <path class="st0" d="M312.2,190.7c0-1.7,1.1-3,2.9-3s2.9,1.4,2.9,3-1.1,3-2.9,3-2.9-1.4-2.9-3ZM316.9,190.7c0-1.2-.7-2.2-1.9-2.2s-1.9,1.1-1.9,2.2.7,2.2,1.9,2.2,1.9-1.1,1.9-2.2Z"/>
      <path class="st0" d="M323.3,193.6v-3.8c0-1-.5-1.3-1.3-1.3s-1.4.4-1.7.9v4.2h-.9v-5.8h.9v.8c.4-.5,1.2-1,2.1-1s1.8.6,1.8,1.9v4.1h-.9Z"/>
    </g>
    <g>
      <path class="st0" d="M419.2,150.4v-8h3.6c1.4,0,2.2.8,2.2,2s-.7,1.7-1.4,1.8c.9.1,1.6,1,1.6,2s-.9,2.2-2.3,2.2h-3.6ZM420.2,145.9h2.4c.9,0,1.4-.6,1.4-1.3s-.5-1.3-1.4-1.3h-2.4v2.6ZM420.2,149.5h2.4c.9,0,1.5-.5,1.5-1.4s-.5-1.4-1.5-1.4h-2.4v2.8Z"/>
      <path class="st0" d="M429.2,144.5c1.8,0,2.8,1.4,2.8,3.1v.2h-4.7c0,1.1.8,2,2.1,2s1.3-.3,1.8-.7l.4.6c-.6.6-1.4.9-2.3.9-1.7,0-3-1.2-3-3s1.2-3,2.9-3ZM427.3,147.1h3.8c0-.9-.6-1.9-1.9-1.9s-1.8,1-1.9,1.9Z"/>
      <path class="st0" d="M440.1,150.4v-.7c-.5.5-1.1.8-1.9.8s-2-.7-2-1.9,1-1.9,2-1.9,1.5.3,1.9.8v-1c0-.8-.6-1.2-1.5-1.2s-1.3.3-1.8.8l-.4-.6c.6-.6,1.4-1,2.3-1s2.2.6,2.2,2v4h-.9ZM440.1,148.1c-.3-.5-1-.7-1.6-.7s-1.4.5-1.4,1.3.6,1.3,1.4,1.3,1.2-.2,1.6-.7v-1.1Z"/>
      <path class="st0" d="M446.8,152.6h-.9v-8h.9v.9c.4-.6,1.1-1,2-1,1.5,0,2.6,1.2,2.6,3s-1.1,3-2.6,3-1.5-.4-2-1v3.1ZM448.6,145.3c-.7,0-1.4.4-1.7.9v2.6c.3.5,1,.9,1.7.9,1.2,0,1.9-1,1.9-2.2s-.7-2.2-1.9-2.2Z"/>
      <path class="st0" d="M456.4,150.4v-.7c-.5.5-1.1.8-1.9.8s-2-.7-2-1.9,1-1.9,2-1.9,1.5.3,1.9.8v-1c0-.8-.6-1.2-1.5-1.2s-1.3.3-1.8.8l-.4-.6c.6-.6,1.4-1,2.3-1s2.2.6,2.2,2v4h-.9ZM456.4,148.1c-.3-.5-1-.7-1.6-.7s-1.4.5-1.4,1.3.6,1.3,1.4,1.3,1.2-.2,1.6-.7v-1.1Z"/>
      <path class="st0" d="M459.2,150.4v-5.8h.9v.9c.5-.6,1.1-1.1,1.9-1.1v.9c-.1,0-.2,0-.4,0-.6,0-1.3.5-1.6.9v4.1h-.9Z"/>
      <path class="st0" d="M463.3,149.2v-3.8h-1v-.8h1v-1.6h.9v1.6h1.2v.8h-1.2v3.6c0,.4.2.7.6.7s.5-.1.6-.2l.3.7c-.2.2-.6.4-1.1.4-.9,0-1.3-.5-1.3-1.4Z"/>
      <path class="st0" d="M469.4,147.5c0-1.7,1.1-3,2.9-3s2.9,1.4,2.9,3-1.1,3-2.9,3-2.9-1.4-2.9-3ZM474.2,147.5c0-1.2-.7-2.2-1.9-2.2s-1.9,1.1-1.9,2.2.7,2.2,1.9,2.2,1.9-1.1,1.9-2.2Z"/>
      <path class="st0" d="M477.8,145.4v5h-.9v-5h-1v-.8h1v-.4c0-1.2.7-1.9,1.7-1.9s.6,0,.9.2l-.2.7c-.1,0-.3-.1-.5-.1-.6,0-.9.4-.9,1.1v.4h1.2v.8h-1.2Z"/>
      <path class="st0" d="M486.7,150.4v-.7c-.5.5-1.1.8-1.9.8s-2-.7-2-1.9,1-1.9,2-1.9,1.5.3,1.9.8v-1c0-.8-.6-1.2-1.5-1.2s-1.3.3-1.8.8l-.4-.6c.6-.6,1.4-1,2.3-1s2.2.6,2.2,2v4h-.9ZM486.7,148.1c-.3-.5-1-.7-1.6-.7s-1.4.5-1.4,1.3.6,1.3,1.4,1.3,1.2-.2,1.6-.7v-1.1Z"/>
      <path class="st0" d="M492.3,150.4v-.8c2.9-2.3,4.4-3.6,4.4-5s-.8-1.5-1.7-1.5-1.7.4-2.2,1l-.6-.6c.6-.8,1.7-1.3,2.8-1.3s2.7.8,2.7,2.4-1.7,3.1-3.9,4.9h3.9v.9h-5.5Z"/>
      <path class="st0" d="M499.6,148.6c.5.6,1.3,1.1,2.2,1.1s1.9-.6,1.9-1.5-.8-1.4-2-1.4-.7,0-.8,0v-.9c.1,0,.5,0,.8,0,1,0,1.9-.4,1.9-1.3s-.8-1.4-1.8-1.4-1.5.3-2.1,1l-.6-.6c.6-.7,1.5-1.2,2.7-1.2s2.7.8,2.7,2.1-1,1.7-1.7,1.9c.7,0,1.8.7,1.8,2s-1.1,2.3-2.8,2.3-2.4-.6-2.8-1.3l.6-.6Z"/>
      <path class="st0" d="M506.9,148.8c.4.5.9.8,1.7.8,1.6,0,2.3-1.6,2.3-3.1s0-.2,0-.3c-.3.6-1.2,1.2-2.3,1.2s-2.6-.9-2.6-2.6,1.1-2.6,2.8-2.6,3.1,2,3.1,4.1-1,4.1-3.2,4.1-1.7-.4-2.2-1l.5-.7ZM508.8,143.2c-1.2,0-1.8.9-1.8,1.7,0,1.2.8,1.7,1.8,1.7s1.6-.5,2-1.2c0-1-.6-2.2-2-2.2Z"/>
      <path class="st0" d="M516.3,151.9c.1,0,.3,0,.5,0,.4,0,.7-.1.9-.6l.4-.9-2.4-5.9h1l1.9,4.7,1.9-4.7h1l-2.9,7c-.3.8-.9,1.2-1.7,1.2-.2,0-.5,0-.7,0v-.8Z"/>
      <path class="st0" d="M524.8,144.5c1.8,0,2.8,1.4,2.8,3.1v.2h-4.7c0,1.1.8,2,2.1,2s1.3-.3,1.8-.7l.4.6c-.6.6-1.4.9-2.3.9-1.7,0-3-1.2-3-3s1.2-3,2.9-3ZM522.9,147.1h3.8c0-.9-.6-1.9-1.9-1.9s-1.8,1-1.9,1.9Z"/>
      <path class="st0" d="M532.7,150.4v-.7c-.5.5-1.1.8-1.9.8s-2-.7-2-1.9,1-1.9,2-1.9,1.5.3,1.9.8v-1c0-.8-.6-1.2-1.5-1.2s-1.3.3-1.8.8l-.4-.6c.6-.6,1.4-1,2.3-1s2.2.6,2.2,2v4h-.9ZM532.7,148.1c-.3-.5-1-.7-1.6-.7s-1.4.5-1.4,1.3.6,1.3,1.4,1.3,1.2-.2,1.6-.7v-1.1Z"/>
      <path class="st0" d="M535.4,150.4v-5.8h.9v.9c.5-.6,1.1-1.1,1.9-1.1v.9c-.1,0-.2,0-.4,0-.6,0-1.3.5-1.6.9v4.1h-.9Z"/>
      <path class="st0" d="M418.8,161.9c0-1.7,1.1-3,2.9-3s2.9,1.4,2.9,3-1.1,3-2.9,3-2.9-1.4-2.9-3ZM423.6,161.9c0-1.2-.7-2.2-1.9-2.2s-1.9,1.1-1.9,2.2.7,2.2,1.9,2.2,1.9-1.1,1.9-2.2Z"/>
      <path class="st0" d="M426,164.8v-8h.9v8h-.9Z"/>
      <path class="st0" d="M432.9,164.8v-.9c-.4.6-1.1,1-2,1-1.5,0-2.6-1.2-2.6-3s1.1-3,2.6-3,1.5.4,2,1v-3.1h.9v8h-.9ZM432.9,160.6c-.3-.5-1-.9-1.7-.9-1.2,0-1.9,1-1.9,2.2s.7,2.2,1.9,2.2,1.4-.4,1.7-.9v-2.6Z"/>
      <path class="st0" d="M438.7,164.8v-8h.9v8h-.9Z"/>
      <path class="st0" d="M443.9,158.9c1.8,0,2.8,1.4,2.8,3.1v.2h-4.7c0,1.1.8,2,2.1,2s1.3-.3,1.8-.7l.4.6c-.6.6-1.4.9-2.3.9-1.7,0-3-1.2-3-3s1.2-3,2.9-3ZM442,161.5h3.8c0-.9-.6-1.9-1.9-1.9s-1.8,1-1.9,1.9Z"/>
      <path class="st0" d="M448.6,165.6c.5.6,1.1.8,1.9.8s1.9-.5,1.9-1.7v-.8c-.4.6-1.1,1-1.9,1-1.5,0-2.6-1.1-2.6-3s1.1-3,2.6-3,1.5.4,1.9,1v-.9h.9v5.6c0,1.9-1.3,2.5-2.8,2.5s-1.7-.2-2.3-.9l.5-.7ZM452.3,160.6c-.3-.5-1-.9-1.7-.9-1.2,0-1.9.9-1.9,2.2s.7,2.2,1.9,2.2,1.4-.4,1.7-.9v-2.5Z"/>
      <path class="st0" d="M458.6,164.8v-.7c-.5.5-1.1.8-1.9.8s-2-.7-2-1.9,1-1.9,2-1.9,1.5.3,1.9.8v-1c0-.8-.6-1.2-1.5-1.2s-1.3.3-1.8.8l-.4-.6c.6-.6,1.4-1,2.3-1s2.2.6,2.2,2v4h-.9ZM458.6,162.5c-.3-.5-1-.7-1.6-.7s-1.4.5-1.4,1.3.6,1.3,1.4,1.3,1.2-.2,1.6-.7v-1.1Z"/>
      <path class="st0" d="M463.9,158.9c1.1,0,1.7.4,2.1,1l-.6.6c-.4-.5-.9-.8-1.5-.8-1.2,0-2,.9-2,2.2s.8,2.2,2,2.2,1.1-.2,1.5-.8l.6.6c-.4.6-1.1,1-2.1,1-1.7,0-2.9-1.3-2.9-3s1.2-3,2.9-3Z"/>
      <path class="st0" d="M467.1,166.3c.1,0,.3,0,.5,0,.4,0,.7-.1.9-.6l.4-.9-2.4-5.9h1l1.9,4.8,1.9-4.8h1l-2.9,7c-.3.8-.9,1.2-1.7,1.2-.2,0-.5,0-.7,0v-.8Z"/>
    </g>
  </g>
</svg>